<svg width="60" height="61" viewBox="0 0 60 61" fill="none" xmlns="http://www.w3.org/2000/svg">
<path d="M32.7 26.3C32.3 25.9 31.7 25.9 31.3 26.3L30.8 26.8C30 26.3 29 26 28 26C25.2 26 23 28.2 23 31C23 32.5 23.6 33.7 24.2 34.5C24.7 35.3 25 36.4 25 37C25 38.7 23.7 40 22 40C20.3 40 19 38.7 19 37C19 36.4 19.2 35.8 19.5 35.3C19.8 34.8 19.7 34.2 19.2 33.9C18.7 33.6 18.1 33.7 17.8 34.2C17.3 35 17 36 17 37C17 38 17.3 39 17.8 39.8L17.3 40.3C16.9 40.7 16.9 41.3 17.3 41.7C17.5 41.9 17.8 42 18 42C18.2 42 18.5 41.9 18.7 41.7L19.2 41.2C20 41.7 21 42 22 42C24.8 42 27 39.8 27 37C27 36 26.5 34.5 25.8 33.5C25.2 32.5 25 31.8 25 31C25 29.3 26.3 28 28 28C28.8 28 29.5 28.3 30.1 28.8C30.1 28.8 30.1 28.8 30.1 28.9C30.1 28.9 30.1 28.9 30.2 28.9C30.7 29.4 31 30.2 31 31C31 31.8 30.7 32.6 30.1 33.1C29.7 33.5 29.7 34.1 30.1 34.5C30.5 34.9 31.1 34.9 31.5 34.5C32.4 33.6 33 32.3 33 31C33 30 32.7 29 32.2 28.2L32.7 27.7C33.1 27.3 33.1 26.7 32.7 26.3ZM51.9 36.6C51.4 36.3 50.8 36.5 50.5 37L39.1 56.5C38.3 57.9 36.4 58.4 35 57.6L32.8 56.2C32.3 55.9 31.7 56 31.4 56.5C31.1 57 31.2 57.6 31.7 57.9L34 59.4C34.8 59.9 35.6 60.1 36.5 60.1C38.2 60.1 39.9 59.2 40.8 57.6L52.3 38.1C52.5 37.5 52.4 36.9 51.9 36.6ZM59.9 5V21C59.9 24.1 58.9 26.4 56.6 28.7L26.9 58.4C26 59.3 24.7 59.9 23.4 59.9C22.1 59.9 20.8 59.4 19.9 58.4L1.5 40.1C0.5 39.1 0 37.9 0 36.5C0 35.2 0.5 33.9 1.5 33L27.5 7.1C20.7 5.6 16.5 5.5 15.3 5.8C15.8 6.3 17.4 7.5 21.4 9C21.9 9.2 22.2 9.8 22 10.3C21.8 10.8 21 11 20.5 10.8C12.4 7.6 12.9 5.8 13 5.2C13.4 3.8 15.3 3.3 19.4 3.7C22.7 4 27 4.8 31.4 6C34.3 6.8 48.7 10.8 47.8 14.5C47.4 15.8 45.6 16 45 16.1H44.9C44.4 16.1 44 15.7 43.9 15.2C43.9 14.6 44.3 14.2 44.8 14.1C45.2 14.1 45.5 14 45.7 14C45.3 13.6 44.2 12.9 42.5 12C42.1 12.6 41.9 13.3 41.9 14C41.9 16.2 43.7 18 45.9 18C48.1 18 49.9 16.2 49.9 14C49.9 11.8 48.1 10 45.9 10C45.3 10 44.9 9.6 44.9 9C44.9 8.4 45.3 8 45.9 8C49.2 8 51.9 10.7 51.9 14C51.9 17.3 49.2 20 45.9 20C42.6 20 39.9 17.3 39.9 14C39.9 13 40.2 12 40.6 11.1C38.3 10.1 35 9 31 7.9C30.6 7.8 30.2 7.7 29.7 7.6L2.9 34.4C2.3 35 2 35.7 2 36.5C2 37.3 2.3 38.1 2.9 38.6L21.3 57C22.4 58.1 24.4 58.1 25.5 57L55.2 27.3C57.1 25.4 57.9 23.6 57.9 21V5C57.9 3.3 56.6 2 54.9 2H38.9C36.3 2 34.6 2.8 32.6 4.7C32.2 5.1 31.6 5.1 31.2 4.7C30.8 4.3 30.8 3.7 31.2 3.3C33.5 1 35.8 0 38.9 0H54.9C57.7 0 59.9 2.2 59.9 5Z" fill="#D09E70"/>
</svg>
