<svg width="84" height="22" viewBox="0 0 84 22" fill="none" xmlns="http://www.w3.org/2000/svg">
<path d="M2.39054 17.274C0.656517 15.2902 -0.112607 12.9625 0.0132497 10.4232C0.209027 6.19108 2.33461 3.01698 6.33405 1.16542C10.3615 -0.69937 14.319 -0.289381 18.0247 2.13087C18.0947 2.18378 18.1506 2.2499 18.2065 2.31603C17.5353 2.27635 16.934 1.93249 16.2627 1.91927C13.9554 1.83991 12.6269 3.25504 11.3543 4.74951C11.1166 4.80241 10.9488 4.96112 10.781 5.1066C8.97704 6.8259 7.1731 8.53198 5.35517 10.2381C5.18736 10.3968 5.01955 10.5423 4.9776 10.7803C4.29238 11.1374 3.84489 11.7458 3.29951 12.2351C2.15281 13.2931 1.77524 14.576 2.06891 16.0705C2.15281 16.4805 2.4325 16.8376 2.39054 17.274Z" fill="#0888EA"/>
<path d="M20.1622 17.3254C18.5959 19.3225 16.4983 20.5524 13.9812 21.1211C10.7089 21.8618 7.6604 21.3195 4.86359 19.5341C4.73773 19.4547 4.62586 19.3357 4.5 19.2431C4.82163 19.296 5.14327 19.3357 5.45092 19.4018C7.67438 19.9044 10.2335 18.7273 11.2263 16.7303C11.4781 16.7171 11.6459 16.5451 11.7997 16.3864C13.7575 14.5084 15.7152 12.6436 17.673 10.7656C18.3023 11.0169 18.6519 11.5592 19.1134 11.9824C20.1202 12.8949 20.6236 13.9794 20.6097 15.3284C20.5957 15.9632 20.274 16.5187 20.316 17.1403L20.33 17.1271C20.274 17.1932 20.2181 17.2593 20.1622 17.3254Z" fill="#0888EA"/>
<path d="M20.3154 17.1432C20.2734 16.5216 20.595 15.9661 20.609 15.3313C20.623 13.9823 20.1196 12.8846 19.1127 11.9852C18.6512 11.562 18.3016 11.0198 17.6724 10.7685C17.5885 10.4908 17.3647 10.3321 17.1689 10.1469C15.6726 8.73178 14.1763 7.31666 12.68 5.91476C12.2465 5.518 11.883 5.05511 11.3516 4.75092C12.6241 3.25645 13.9526 1.8281 16.26 1.90746C16.9452 1.93391 17.5465 2.26454 18.2038 2.30422C18.2597 2.3439 18.3296 2.3968 18.3856 2.43647C20.6929 4.1161 22.0214 6.3512 22.4829 9.03597C22.9723 11.8662 22.3151 14.4981 20.595 16.8654C20.5111 16.9712 20.3993 17.0506 20.3154 17.1432Z" fill="#1068CC"/>
<path d="M11.2142 16.7312C10.2214 18.715 7.66227 19.9053 5.4388 19.4027C5.13115 19.3366 4.80952 19.2969 4.48788 19.244C4.43195 19.2043 4.37601 19.1647 4.30609 19.125C3.66282 18.7018 3.08948 18.2124 2.64199 17.5908C2.58605 17.5247 2.5441 17.4718 2.48816 17.4057L2.50215 17.4189C2.46019 17.366 2.40426 17.3131 2.3623 17.2602V17.2734C2.40426 16.837 2.12458 16.4931 2.04067 16.0831C1.74701 14.5887 2.12457 13.3058 3.27127 12.2478C3.81665 11.7452 4.25015 11.1368 4.94936 10.793C6.96307 12.8561 9.10263 14.7738 11.2142 16.7312Z" fill="#1068CC"/>
<path d="M33.5072 10.5929C33.5072 9.50845 33.5352 8.43719 33.4932 7.3527C33.4792 6.87659 33.661 6.74433 34.1365 6.77078C35.409 6.83691 36.6956 6.66498 37.9681 6.91626C39.5903 7.2469 40.5552 8.25203 40.7369 9.81264C41.0726 12.7355 39.4085 14.4812 36.29 14.4944C35.5908 14.4944 34.8916 14.4548 34.1924 14.5077C33.6051 14.5473 33.4792 14.3225 33.4932 13.8199C33.5352 12.7487 33.5072 11.6774 33.5072 10.5929ZM35.6048 10.6458C35.6048 11.241 35.6048 11.8361 35.6048 12.4313C35.6048 12.6429 35.6188 12.8016 35.9124 12.8413C36.7655 12.9735 37.7583 12.6297 38.1779 11.9684C38.7232 11.1087 38.7652 10.2094 38.2338 9.33652C37.8283 8.67525 36.7655 8.30494 35.8985 8.45042C35.6048 8.50332 35.5908 8.66202 35.5908 8.8604C35.6048 9.45555 35.6048 10.0507 35.6048 10.6458Z" fill="white"/>
<path d="M48.9433 6.6813C49.1531 6.6813 49.3628 6.66808 49.5726 6.6813C50.8871 6.76065 51.2926 7.3029 50.943 8.51964C50.8591 8.82382 50.6913 8.77092 50.4816 8.66512C49.9641 8.40061 49.3908 8.25513 48.8035 8.2948C48.4119 8.32126 47.9504 8.34771 47.8526 8.79737C47.7547 9.23381 48.1742 9.39252 48.4958 9.55122C49.0132 9.8025 49.5586 10.0009 50.062 10.2654C51.0409 10.7944 51.4604 11.6541 51.2926 12.646C51.1248 13.6643 50.4396 14.2198 49.4328 14.4711C48.4259 14.7091 47.4051 14.6562 46.3982 14.4446C45.8528 14.3256 45.5172 14.1008 45.6291 13.5056C45.699 13.1353 45.4613 12.646 45.727 12.4211C46.0906 12.117 46.3982 12.646 46.7478 12.7518C47.3072 12.9237 47.8665 13.0692 48.4539 12.9369C48.7335 12.884 49.0132 12.7782 49.0832 12.4873C49.1671 12.1831 48.9153 11.9979 48.6916 11.8392C48.2441 11.5218 47.6847 11.3896 47.1953 11.1515C46.3702 10.7547 45.727 10.2125 45.6291 9.27349C45.5032 8.12287 46.0766 7.27645 47.2512 6.86646C47.7826 6.69453 48.356 6.65485 48.9433 6.6813Z" fill="white"/>
<path d="M30.2628 10.4632C31.1857 10.8732 31.6192 11.5212 31.5493 12.4338C31.4654 13.4521 30.8641 14.1002 29.8712 14.4176C28.8084 14.7482 27.7177 14.7218 26.6549 14.3779C26.2633 14.2457 25.9837 12.8967 26.2913 12.6586C26.4731 12.5264 26.6409 12.6322 26.8087 12.7247C27.3821 13.0289 27.9974 13.095 28.6406 13.0157C29.1021 12.9628 29.4237 12.7247 29.4657 12.2486C29.4937 11.799 29.2 11.5609 28.7805 11.4419C28.4169 11.3361 28.0533 11.2832 27.6757 11.3228C27.1303 11.389 26.9625 11.1641 27.0325 10.688C27.0604 10.5425 27.0464 10.3838 27.0325 10.2251C27.0045 9.84159 27.2003 9.72256 27.5778 9.72256C27.8995 9.72256 28.2351 9.73579 28.5567 9.68289C28.9902 9.60353 29.2699 9.35225 29.2419 8.90259C29.214 8.45292 28.8923 8.26777 28.4309 8.24131C27.9554 8.21486 27.5079 8.28099 27.0884 8.51905C26.7108 8.74388 26.557 8.62485 26.529 8.21486C26.4451 7.0907 26.585 6.89232 27.7596 6.70716C28.2631 6.62781 28.7805 6.61459 29.2979 6.69394C30.2208 6.83942 30.99 7.20973 31.2696 8.13551C31.5074 9.03484 31.1997 9.77546 30.2628 10.4632Z" fill="white"/>
<path d="M70.9259 11.7058C70.9259 12.4729 70.9119 13.2532 70.9259 14.0203C70.9399 14.3906 70.7861 14.589 70.4085 14.4964C69.8771 14.3641 69.1779 14.8667 68.8003 14.1525C68.7024 14.2054 68.6045 14.2451 68.5067 14.298C66.8286 15.1973 65.2344 14.3509 65.2064 12.539C65.1924 11.5074 65.2204 10.4626 65.1924 9.43105C65.1784 9.03429 65.3043 8.88881 65.7518 8.88881C67.6257 8.92848 67.2481 8.66397 67.2761 10.2907C67.29 10.9123 67.2761 11.5207 67.2761 12.1423C67.2761 12.6184 67.36 13.0548 68.0032 13.0416C68.6465 13.0284 68.8283 12.6316 68.8423 12.1158C68.8563 11.2826 68.8702 10.4362 68.8423 9.60298C68.8143 9.07396 68.9681 8.86236 69.5694 8.87558C70.9259 8.90203 70.9259 8.87558 70.9259 10.1717C70.9259 10.6875 70.9259 11.19 70.9259 11.7058Z" fill="white"/>
<path d="M81.0818 12.341C80.6902 12.341 80.2847 12.3278 79.8931 12.341C79.7393 12.341 79.5296 12.2485 79.4596 12.4336C79.3757 12.6585 79.5715 12.8039 79.7393 12.9097C80.3686 13.28 81.0258 13.161 81.6971 13.0023C81.9348 12.9494 82.2005 12.513 82.4522 12.9759C82.662 13.3859 82.4243 14.2323 82.0886 14.3513C81.0258 14.7084 79.9491 14.7745 78.8863 14.3778C77.6697 13.9281 77.0963 12.6981 77.3341 11.1772C77.5298 9.86789 78.5087 8.91565 79.8232 8.7834C82.1026 8.55857 83.1514 9.96046 82.9836 12.0236C82.9557 12.2881 82.7878 12.341 82.5501 12.341C82.0467 12.341 81.5572 12.341 81.0818 12.341ZM79.3757 11.0185C79.8232 11.0185 80.2148 11.0053 80.6063 11.0185C81.0818 11.045 81.0258 10.8201 80.886 10.5292C80.7462 10.2514 80.4805 10.1721 80.1868 10.1985C79.7533 10.2382 79.5016 10.5027 79.3757 11.0185Z" fill="white"/>
<path d="M54.4538 12.3396C54.5657 12.8818 54.9432 13.0538 55.3627 13.1199C55.7543 13.186 56.1459 13.1596 56.5374 13.0538C57.5722 12.776 57.5582 12.776 57.5303 13.8076C57.5163 14.125 57.4044 14.2837 57.0828 14.3763C56.0759 14.6805 55.0691 14.7466 54.0622 14.4292C52.8176 14.0324 52.1464 12.776 52.3422 11.2948C52.524 9.91932 53.5308 8.91419 54.8733 8.78194C56.9849 8.57033 58.1735 9.76062 58.0337 11.9693C58.0057 12.3793 57.7121 12.3264 57.4324 12.3264C56.4675 12.3396 55.4886 12.3396 54.4538 12.3396ZM56.048 11.0038C56.0899 10.5145 55.8662 10.2103 55.3627 10.1971C54.8314 10.1838 54.5517 10.488 54.4818 11.0038C54.9992 11.0038 55.4886 11.0038 56.048 11.0038Z" fill="white"/>
<path d="M62.3539 8.76953C62.4938 8.78276 62.6056 8.78276 62.7175 8.79598C63.8223 8.86211 64.2698 9.4837 63.8922 10.4624C63.7384 10.8591 63.4866 10.5946 63.2769 10.5153C62.0603 10.0656 61.0534 10.6343 61.0814 11.7717C61.1093 12.8297 62.0183 13.3455 63.165 12.9355C63.9062 12.671 63.9062 12.671 63.9062 13.4513C63.9062 14.3903 63.8362 14.4829 62.8434 14.6019C62.1302 14.6813 61.403 14.6945 60.7178 14.43C59.4033 13.901 58.788 12.7239 59.0397 11.1633C59.2355 9.92014 60.3123 8.96791 61.6827 8.82243C61.9064 8.76953 62.1442 8.76953 62.3539 8.76953Z" fill="white"/>
<path d="M72.6063 11.7061C72.6063 10.939 72.6203 10.1587 72.6063 9.39166C72.5924 9.02135 72.7462 8.82297 73.1377 8.91555C73.6691 9.03458 74.3683 8.54524 74.7459 9.25941C74.8298 9.21973 74.8997 9.16683 74.9836 9.12715C75.1934 9.03458 75.3892 8.90232 75.6129 8.84942C76.396 8.65104 76.6198 8.80974 76.6198 9.57682C76.6198 9.73553 76.6058 9.88101 76.6198 10.0397C76.6477 10.4894 76.5918 10.7407 75.9625 10.5687C75.2773 10.3836 74.7739 10.8068 74.7319 11.5606C74.676 12.3542 74.69 13.1477 74.7039 13.9412C74.7179 14.3644 74.5781 14.5231 74.1166 14.5231C72.6203 14.5364 72.6203 14.5628 72.6203 13.1609C72.6063 12.6716 72.6063 12.1822 72.6063 11.7061Z" fill="white"/>
<path d="M18.3849 2.43499C18.329 2.39531 18.2591 2.34241 18.2031 2.30273C18.2591 2.34241 18.315 2.39531 18.3849 2.43499Z" fill="#0888EA"/>
<path d="M20.1641 17.3273C20.22 17.2612 20.262 17.195 20.3179 17.1289C20.2759 17.195 20.22 17.2612 20.1641 17.3273Z" fill="#1068CC"/>
<path d="M2.39062 17.2598C2.43258 17.3127 2.48851 17.3656 2.53047 17.4185C2.47453 17.3656 2.43258 17.3127 2.39062 17.2598Z" fill="#0888EA"/>
<path d="M2.51562 17.3945C2.57156 17.4607 2.61351 17.5136 2.66945 17.5797C2.61351 17.5268 2.55758 17.4607 2.51562 17.3945Z" fill="#0888EA"/>
<path d="M4.32031 19.1133C4.37625 19.153 4.43219 19.1926 4.50211 19.2323C4.44617 19.1926 4.39023 19.153 4.32031 19.1133Z" fill="#0888EA"/>
</svg>
