<svg width="44" height="50" viewBox="0 0 44 50" fill="none" xmlns="http://www.w3.org/2000/svg">
<path d="M43.8702 22.8196C43.8694 22.7891 43.8679 22.759 43.8641 22.7292C43.8622 22.7132 43.8588 22.6975 43.8561 22.6819C43.8515 22.656 43.8466 22.6304 43.8401 22.6048C43.8359 22.5884 43.8309 22.5724 43.8256 22.556C43.818 22.532 43.8099 22.5087 43.8004 22.4854C43.7943 22.4694 43.7874 22.4538 43.7806 22.4385C43.7699 22.4153 43.7581 22.3931 43.7455 22.371C43.7375 22.3565 43.7298 22.342 43.7211 22.3283C43.7069 22.3054 43.6909 22.2836 43.6749 22.2623C43.6661 22.2501 43.6577 22.2379 43.6482 22.2264C43.6272 22.2009 43.6043 22.1768 43.5807 22.1532C43.5746 22.1471 43.5692 22.1402 43.5627 22.1345C43.5334 22.107 43.5029 22.0811 43.4701 22.057L37.4447 17.6415L37.4581 11.3205C37.4722 11.2542 37.4817 11.1863 37.4817 11.1165V0.984196C37.4817 0.440599 37.0411 0 36.4975 0H28.6762C28.1326 0 27.692 0.440599 27.692 0.984196V3.67662H7.76701C7.50609 3.67662 7.25546 3.78038 7.07121 3.96501C6.88658 4.14964 6.78282 4.40027 6.78282 4.6612L6.78396 17.6644L0.73192 22.0506C0.731539 22.0509 0.731157 22.0509 0.731157 22.0509L0.726961 22.054C0.69301 22.0784 0.661729 22.1051 0.631593 22.133C0.622819 22.1414 0.614808 22.1509 0.606416 22.1597C0.585435 22.1806 0.564836 22.2024 0.545762 22.2249C0.535844 22.2371 0.52707 22.2501 0.517533 22.2627C0.501893 22.2836 0.486634 22.3046 0.47252 22.3267C0.463746 22.3412 0.455735 22.3557 0.447342 22.3702C0.435135 22.392 0.42331 22.4145 0.41301 22.437C0.405762 22.4526 0.398896 22.4683 0.392411 22.4843C0.383255 22.5076 0.374863 22.5312 0.367233 22.5549C0.362274 22.5713 0.356934 22.5877 0.352738 22.6041C0.346253 22.6293 0.341293 22.6548 0.336716 22.6808C0.334045 22.6968 0.330612 22.7124 0.328705 22.7284C0.32489 22.7582 0.323364 22.7887 0.32222 22.8188C0.321838 22.8295 0.320312 22.8402 0.320312 22.8509V49.0156C0.320312 49.5592 0.760912 49.9998 1.30451 49.9998H42.8883C43.4319 49.9998 43.8725 49.5592 43.8725 49.0156V22.8513C43.8725 22.8406 43.8706 22.8303 43.8702 22.8196ZM41.1904 22.8272L37.4817 25.3877V20.1093L41.1904 22.8272ZM29.6604 1.96839H35.5133V8.88027L33.252 6.80888C33.0635 6.63646 32.8255 6.55024 32.5871 6.55024C32.3486 6.55024 32.1102 6.63646 31.9222 6.80888L29.6604 8.88027V1.96839ZM27.692 5.64539V11.1165C27.692 11.5067 27.9228 11.8603 28.2799 12.0175C28.6373 12.1747 29.0535 12.106 29.3411 11.8424L32.5871 8.86921L35.4893 11.5277L35.4572 26.7854L24.6635 34.2378C23.1281 35.2979 21.0647 35.2979 19.5293 34.2378L8.7535 26.7976L8.75159 5.64539H27.692ZM6.78282 25.4373L3.00854 22.8318L6.78282 20.0963V25.4373ZM2.2887 48.0318V24.727L7.20778 28.1243C7.21159 28.127 7.21579 28.1285 7.21998 28.1312L18.4108 35.8579C18.6176 36.0006 18.8308 36.1299 19.0498 36.2459C19.9977 36.7479 21.0472 36.9993 22.0966 36.9993C23.035 36.9993 23.9731 36.7971 24.839 36.3954C25.016 36.3138 25.1903 36.2241 25.3601 36.1253C25.5035 36.0422 25.6443 35.9529 25.782 35.8579L36.8412 28.2224C36.9175 28.1938 36.9915 28.1579 37.0606 28.1102L41.9041 24.7361V48.0318H2.2887Z" fill="#CB9C71"/>
</svg>
