<svg width="50" height="46" viewBox="0 0 50 46" fill="none" xmlns="http://www.w3.org/2000/svg">
<path d="M4.16667 35.166V45.9993H5.83333V35.166H12.5V45.166C12.5 45.6258 12.8735 45.9993 13.3333 45.9993H18.3333C18.7931 45.9993 19.1667 45.6258 19.1667 45.166V32.666C19.1667 31.7244 18.8407 30.8643 18.3118 30.166H24.1667V44.3327H20.8333V45.9993H29.1667V44.3327H25.8333V30.166H31.6683C31.145 30.8626 30.8333 31.7285 30.8333 32.666V45.166C30.8333 45.6258 31.2069 45.9993 31.6667 45.9993H36.6667C37.1265 45.9993 37.5 45.6258 37.5 45.166V35.166H44.1667V45.9993H45.8333V35.166C48.1307 35.166 50 33.2967 50 30.9993V20.166C50 18.3317 48.8009 16.7875 47.1509 16.2333C48.3834 15.1628 49.1667 13.5893 49.1667 11.8327C49.1667 8.61613 46.5499 5.99935 43.3333 5.99935C40.1168 5.99935 37.5 8.61613 37.5 11.8327C37.5 13.5893 38.2833 15.1628 39.5158 16.2333C37.8658 16.7875 36.6667 18.3317 36.6667 20.166V23.4993H30C29.5402 23.4993 29.1667 23.8729 29.1667 24.3327V28.4993H21.1568L23.291 22.0959L21.7098 21.5686L19.399 28.4993H11.8726L13.1694 22.666H17.5C17.7209 22.666 17.9333 22.5785 18.0892 22.4219L22.8451 17.666H23.4408C23.37 17.9362 23.3333 18.2161 23.3333 18.4993C23.3333 20.3377 24.8283 21.8327 26.6667 21.8327C28.505 21.8327 30 20.3377 30 18.4993C30 18.2161 29.9634 17.9362 29.8926 17.666H31.6667C32.1265 17.666 32.5 17.2925 32.5 16.8327V12.8495C32.5 12.5195 32.3059 12.2209 32.004 12.0878C31.7041 11.9552 31.3517 12.0109 31.1068 12.2319C30.7983 12.5118 30.4049 12.666 30 12.666C29.0808 12.666 28.3333 11.9185 28.3333 10.9993C28.3333 10.0802 29.0808 9.33268 30 9.33268C30.4049 9.33268 30.7983 9.4869 31.1076 9.76685C31.3517 9.98861 31.7033 10.0435 32.0048 9.91089C32.3059 9.77783 32.5 9.47835 32.5 9.14917V5.16602C32.5 4.70622 32.1265 4.33268 31.6667 4.33268H29.8926C29.9634 4.0625 30 3.78255 30 3.49935C30 1.66097 28.505 0.166016 26.6667 0.166016C24.8283 0.166016 23.3333 1.66097 23.3333 3.49935C23.3333 3.78255 23.37 4.0625 23.4408 4.33268H21.6667C21.2069 4.33268 20.8333 4.70622 20.8333 5.16602V10.6543L15.4883 15.9993H13.2418C14.325 14.9394 15 13.4644 15 11.8327C15 8.61613 12.3832 5.99935 9.16667 5.99935C5.95011 5.99935 3.33333 8.61613 3.33333 11.8327C3.33333 13.6235 4.14591 15.2258 5.41992 16.2976C4.11499 16.8136 3.11483 17.9635 2.84912 19.4059L1.66667 25.4553V18.4993H0V30.9993C0 33.2967 1.8693 35.166 4.16667 35.166ZM39.1667 11.8327C39.1667 9.53532 41.036 7.66602 43.3333 7.66602C45.6307 7.66602 47.5 9.53532 47.5 11.8327C47.5 14.13 45.6307 15.9993 43.3333 15.9993C41.036 15.9993 39.1667 14.13 39.1667 11.8327ZM30.8333 25.166H37.5C37.9598 25.166 38.3333 24.7925 38.3333 24.3327V20.166C38.3333 18.7878 39.4552 17.666 40.8333 17.666H45.8333C47.2115 17.666 48.3333 18.7878 48.3333 20.166V30.9993C48.3333 32.3775 47.2115 33.4993 45.8333 33.4993H36.6667C36.2069 33.4993 35.8333 33.8729 35.8333 34.3327V44.3327H32.5V32.666C32.5 31.2878 33.6218 30.166 35 30.166H42.5C42.9598 30.166 43.3333 29.7925 43.3333 29.3327V21.8327H41.6667V28.4993H30.8333V25.166ZM22.5 5.99935H24.8165C25.1465 5.99935 25.4451 5.80526 25.5782 5.50334C25.7125 5.20264 25.6559 4.85026 25.4342 4.60612C25.1542 4.29769 25 3.90422 25 3.49935C25 2.58016 25.7475 1.83268 26.6667 1.83268C27.5859 1.83268 28.3333 2.58016 28.3333 3.49935C28.3333 3.90422 28.1791 4.29769 27.8992 4.60693C27.6774 4.85107 27.6217 5.20264 27.7551 5.50415C27.8882 5.80526 28.1868 5.99935 28.5168 5.99935H30.8333V7.77344C30.5632 7.70264 30.2832 7.66602 30 7.66602C28.1616 7.66602 26.6667 9.16097 26.6667 10.9993C26.6667 12.8377 28.1616 14.3327 30 14.3327C30.2832 14.3327 30.5632 14.2961 30.8333 14.2253V15.9993H28.5168C28.1868 15.9993 27.8882 16.1934 27.7551 16.4954C27.6208 16.7969 27.6782 17.1484 27.8992 17.3926C28.1791 17.701 28.3333 18.0945 28.3333 18.4993C28.3333 19.4185 27.5859 20.166 26.6667 20.166C25.7475 20.166 25 19.4185 25 18.4993C25 18.0945 25.1542 17.701 25.4342 17.3926C25.6559 17.1484 25.7125 16.7969 25.5782 16.4954C25.4451 16.1934 25.1465 15.9993 24.8165 15.9993H24.5117L25.5892 14.9219C25.9151 14.5959 25.9151 14.0694 25.5892 13.7435L22.5 10.6543V5.99935ZM5 11.8327C5 9.53532 6.8693 7.66602 9.16667 7.66602C11.464 7.66602 13.3333 9.53532 13.3333 11.8327C13.3333 14.13 11.464 15.9993 9.16667 15.9993C6.8693 15.9993 5 14.13 5 11.8327ZM2.36735 30.5595L4.48568 19.7168C4.705 18.5286 5.74178 17.666 6.94987 17.666H15.8333C16.0543 17.666 16.2667 17.5785 16.4225 17.4219L21.6667 12.1777L23.8216 14.3327L17.1549 20.9993H12.5C12.109 20.9993 11.7708 21.2712 11.6866 21.652L10.0199 29.152C9.96501 29.3986 10.0248 29.657 10.1835 29.8535C10.3418 30.0509 10.5806 30.166 10.8333 30.166H15C16.3782 30.166 17.5 31.2878 17.5 32.666V44.3327H14.1667V34.3327C14.1667 33.8729 13.7931 33.4993 13.3333 33.4993H4.82503C4.08325 33.4993 3.3842 33.1718 2.90934 32.6009C2.43164 32.0292 2.23592 31.2817 2.36735 30.5595Z" fill="#CB9C71"/>
</svg>
