<svg width="100" height="102" viewBox="0 0 100 102" fill="none" xmlns="http://www.w3.org/2000/svg">
<path d="M50.0009 28.3496C38.0399 28.3496 28.3438 38.0483 28.3438 50.0125C28.3438 61.9767 38.0399 71.6754 50.0009 71.6754C61.9618 71.6754 71.658 61.9767 71.658 50.0125C71.6442 38.0542 61.9562 28.3634 50.0009 28.3496ZM50.0009 68.3426C39.8801 68.3426 31.6756 60.1359 31.6756 50.0125C31.6756 39.8891 39.8801 31.6824 50.0009 31.6824C60.1216 31.6824 68.3261 39.8891 68.3261 50.0125C68.3142 60.1309 60.1168 68.3308 50.0009 68.3426Z" fill="#D09E70"/>
<path d="M59.9951 43.3475C59.9951 40.5865 57.7575 38.3484 54.9973 38.3484H53.3314V35.0156H49.9995V38.3484H48.3336V35.0156H45.0017V38.3484H40.0039V41.6811H43.3358V58.3449H40.0039V61.6776H45.0017V65.0104H48.3336V61.6776H49.9995V65.0104H53.3314V61.6776H54.9973C57.7575 61.6776 59.9951 59.4395 59.9951 56.6785V53.3458C59.9907 52.112 59.5276 50.9239 58.6957 50.013C59.5276 49.1021 59.9907 47.914 59.9951 46.6803V43.3475ZM56.6632 56.6785C56.6632 57.5988 55.9173 58.3449 54.9973 58.3449H46.6676V51.6794H54.9973C55.9173 51.6794 56.6632 52.4255 56.6632 53.3458V56.6785ZM56.6632 46.6803C56.6632 47.6005 55.9173 48.3466 54.9973 48.3466H46.6676V41.6811H54.9973C55.9173 41.6811 56.6632 42.4273 56.6632 43.3475V46.6803Z" fill="#D09E70"/>
<path d="M91.4518 76.4721C90.9281 77.0001 90.5297 77.6392 90.2857 78.3418H80.6766L69.9613 67.6236C73.88 63.1948 76.206 57.5829 76.57 51.6797H90.289C91.209 54.2828 94.0646 55.647 96.6668 54.7265C99.269 53.806 100.633 50.9499 99.7128 48.347C98.7927 45.7439 95.9371 44.3797 93.3349 45.3002C91.9116 45.8035 90.7921 46.9235 90.289 48.347H76.57C76.206 42.4438 73.88 36.8319 69.9613 32.4031L80.6766 21.6849H90.2857C91.1973 24.2822 94.0415 25.6482 96.6379 24.7363C97.3438 24.4882 97.985 24.0845 98.5137 23.5546C100.465 21.6025 100.465 18.438 98.5137 16.4859C96.5356 14.5976 93.4232 14.5976 91.4452 16.4859C90.9214 17.0139 90.5231 17.6529 90.279 18.3555H79.9867C79.5448 18.3555 79.1212 18.5313 78.8089 18.8438L67.6055 30.0502C63.1782 26.1294 57.5678 23.8012 51.6658 23.4363V9.7137C54.2682 8.79344 55.632 5.93706 54.7118 3.33418C53.7916 0.731303 50.9364 -0.633043 48.334 0.287213C45.7316 1.20747 44.3678 4.06385 45.288 6.66673C45.7911 8.09044 46.9108 9.21024 48.334 9.71349V23.4361C42.4324 23.8002 36.822 26.1269 32.3943 30.0466L21.1909 18.8402C20.8786 18.5278 20.455 18.352 20.0131 18.352H9.71433C9.47027 17.6498 9.0717 17.0116 8.54818 16.484C6.5701 14.5958 3.45772 14.5958 1.47963 16.484C-0.472214 18.4361 -0.47263 21.6014 1.47901 23.5538C1.47922 23.554 1.47943 23.5542 1.47963 23.5544C3.40399 25.5093 6.54823 25.5334 8.50258 23.6086C9.04984 23.0697 9.46444 22.4111 9.71433 21.6847H19.3234L30.0387 32.4029C26.12 36.8317 23.794 42.4436 23.4299 48.3468H9.711C8.79099 45.7437 5.93538 44.3795 3.33319 45.3C0.731005 46.2205 -0.632976 49.0766 0.287243 51.6797C1.20725 54.2828 4.06287 55.647 6.66505 54.7265C8.08838 54.2232 9.20789 53.1032 9.711 51.6797H23.4299C23.794 57.5829 26.12 63.1948 30.0387 67.6236L19.3234 78.3418H9.71433C9.47027 77.6396 9.0717 77.0014 8.54818 76.4737C6.5701 74.5855 3.45772 74.5855 1.47963 76.4737C-0.472839 78.4257 -0.473463 81.5912 1.47797 83.5442C3.4294 85.4972 6.59404 85.4978 8.54652 83.5458C9.07108 83.0174 9.47007 82.3779 9.71433 81.6745H20.0131C20.455 81.6745 20.8786 81.4987 21.1909 81.1863L32.3943 69.9799C36.822 73.8996 42.4324 76.2263 48.334 76.5904V91.6728C48.344 91.7705 48.3635 91.8671 48.3923 91.961C45.7788 92.8492 44.3799 95.6883 45.2676 98.3024C46.1555 100.917 48.9939 102.316 51.6075 101.428C54.221 100.54 55.6199 97.7007 54.732 95.0863C54.2324 93.6155 53.0779 92.4605 51.6075 91.961C51.6363 91.8671 51.6556 91.7705 51.6658 91.6728V76.5904C57.5674 76.2263 63.1778 73.8996 67.6055 69.9799L78.8089 81.1863C79.1212 81.4987 79.5448 81.6745 79.9867 81.6745H90.2855C90.5295 82.3767 90.9281 83.0149 91.4516 83.5425C93.4035 85.4949 96.5683 85.4949 98.5201 83.5425C100.472 81.5901 100.472 78.4244 98.5201 76.4721C96.5421 74.5839 93.4299 74.5839 91.4518 76.4721ZM94.98 48.347C95.9001 48.347 96.646 49.0931 96.646 50.0133C96.646 50.9336 95.9001 51.6797 94.98 51.6797C94.06 51.6797 93.3141 50.9336 93.3141 50.0133C93.3141 49.0931 94.06 48.347 94.98 48.347ZM93.8022 18.8404C94.4415 18.1785 95.4961 18.1601 96.1579 18.7996C96.8196 19.4391 96.838 20.4939 96.1987 21.1559C96.1853 21.1698 96.1716 21.1834 96.1579 21.1967C95.499 21.8268 94.4611 21.8268 93.8022 21.1967C93.1519 20.546 93.1519 19.4912 93.8022 18.8404ZM6.19797 21.1963C6.19776 21.1965 6.19776 21.1965 6.19755 21.1967C5.53868 21.8268 4.5008 21.8268 3.84192 21.1967C3.19117 20.546 3.19117 19.491 3.84151 18.84C4.49185 18.1891 5.5468 18.1891 6.19755 18.8396C6.84831 19.4903 6.84852 20.5456 6.19797 21.1963ZM5.01974 51.6797C4.09973 51.6797 3.35381 50.9336 3.35381 50.0133C3.35381 49.0931 4.09973 48.347 5.01974 48.347C5.93975 48.347 6.68567 49.0931 6.68567 50.0133C6.68567 50.9336 5.93996 51.6797 5.01974 51.6797ZM6.19797 81.1858C6.19776 81.1861 6.19776 81.1861 6.19755 81.1863C5.53868 81.8164 4.5008 81.8164 3.84192 81.1863C3.19117 80.5355 3.19117 79.4805 3.84151 78.8296C4.49205 78.1787 5.5468 78.1787 6.19755 78.8292C6.84831 79.4799 6.84852 80.5351 6.19797 81.1858ZM49.9999 3.3548C50.9199 3.3548 51.6658 4.10092 51.6658 5.02118C51.6658 5.94144 50.9199 6.68756 49.9999 6.68756C49.0799 6.68756 48.334 5.94144 48.334 5.02118C48.334 4.10092 49.0799 3.3548 49.9999 3.3548ZM51.6658 96.6719C51.6658 97.5921 50.9199 98.3383 49.9999 98.3383C49.0799 98.3383 48.334 97.5921 48.334 96.6719C48.334 95.7516 49.0799 95.0055 49.9999 95.0055C50.9199 95.0055 51.6658 95.7516 51.6658 96.6719ZM49.9999 73.3426C37.1189 73.3426 26.6769 62.8978 26.6769 50.0133C26.6769 37.1289 37.1189 26.6841 49.9999 26.6841C62.8809 26.6841 73.3229 37.1289 73.3229 50.0133C73.3092 62.8919 62.8753 73.3289 49.9999 73.3426ZM96.1987 81.1454C96.1853 81.1592 96.1718 81.1729 96.1579 81.1863C95.499 81.8164 94.4611 81.8164 93.8022 81.1863C93.1519 80.5355 93.1519 79.4807 93.8022 78.83C94.4415 78.168 95.4961 78.1497 96.1579 78.7892C96.8196 79.4286 96.838 80.4835 96.1987 81.1454Z" fill="#D09E70"/>
</svg>
