<svg width="50" height="50" viewBox="0 0 50 50" fill="none" xmlns="http://www.w3.org/2000/svg">
<g clip-path="url(#clip0)">
<path d="M44.9994 23.8514V7.49996C44.9967 5.19973 43.1329 3.3359 40.8327 3.33323H39.9995V2.50011C39.9995 1.11922 38.8799 0 37.4994 0C36.1189 0 34.9993 1.11922 34.9993 2.50011V3.33323H9.99969V2.50011C9.99969 1.11922 8.88048 0 7.49996 0C6.11906 0 4.99985 1.11922 4.99985 2.50011V3.33323H4.16673C1.8665 3.3359 0.00267025 5.19973 0 7.49996V39.9995C0.00267025 42.2994 1.8665 44.1632 4.16673 44.1659H23.153C26.6224 48.6664 32.3397 50.816 37.9148 49.7166C43.4899 48.6168 47.963 44.4577 49.464 38.9768C50.9651 33.4963 49.2359 27.6382 44.9994 23.8514ZM36.6659 2.50011C36.6659 2.03969 37.0394 1.66662 37.4994 1.66662C37.9595 1.66662 38.3329 2.03969 38.3329 2.50011V6.66646C38.3329 7.12689 37.9595 7.49996 37.4994 7.49996C37.0394 7.49996 36.6659 7.12689 36.6659 6.66646V2.50011ZM6.66646 2.50011C6.66646 2.03969 7.03954 1.66662 7.49996 1.66662C7.96001 1.66662 8.33308 2.03969 8.33308 2.50011V6.66646C8.33308 7.12689 7.96001 7.49996 7.49996 7.49996C7.03954 7.49996 6.66646 7.12689 6.66646 6.66646V2.50011ZM4.16673 4.99985H4.99985V6.66646C4.99985 8.04736 6.11906 9.16658 7.49996 9.16658C8.88048 9.16658 9.99969 8.04736 9.99969 6.66646V4.99985H34.9993V6.66646C34.9993 8.04736 36.1189 9.16658 37.4994 9.16658C38.8799 9.16658 39.9995 8.04736 39.9995 6.66646V4.99985H40.8327C42.2136 4.99985 43.3328 6.11906 43.3328 7.49996V10.8332H1.66662V7.49996C1.66662 6.11906 2.78583 4.99985 4.16673 4.99985ZM4.16673 42.4993C2.78583 42.4993 1.66662 41.3801 1.66662 39.9995V12.4998H43.3328V22.5365C37.5402 18.6452 29.8282 19.2685 24.7364 24.0399C19.6446 28.8116 18.5216 36.4668 22.0288 42.4993H4.16673ZM34.9993 48.3326C27.6359 48.3326 21.6664 42.3631 21.6664 34.9993C21.6664 27.6359 27.6359 21.6664 34.9993 21.6664C42.3631 21.6664 48.3326 27.6359 48.3326 34.9993C48.3238 42.3597 42.3597 48.3238 34.9993 48.3326Z" fill="#CB9C71"/>
<path d="M34.9983 23.332C28.5554 23.332 23.332 28.5554 23.332 34.9983C23.332 41.4416 28.5554 46.665 34.9983 46.665C41.4417 46.665 46.665 41.4416 46.665 34.9983C46.6582 28.5581 41.439 23.3389 34.9983 23.332ZM34.9983 44.9984C29.4759 44.9984 24.9986 40.5212 24.9986 34.9983C24.9986 29.4759 29.4759 24.9986 34.9983 24.9986C40.5212 24.9986 44.9984 29.4759 44.9984 34.9983C44.9923 40.5189 40.5189 44.9923 34.9983 44.9984Z" fill="#CB9C71"/>
<path d="M18.3344 30.8326C18.7944 30.8326 19.1675 30.4595 19.1675 29.9991C19.1675 29.539 18.7944 29.1659 18.3344 29.1659H17.5009V25.8327H20.001C20.4611 25.8327 20.8341 25.4593 20.8341 24.9992C20.8341 24.5392 20.4611 24.1657 20.001 24.1657H17.5009V20.8325H21.6676V22.4991C21.6676 22.9595 22.0407 23.3326 22.5007 23.3326C22.9612 23.3326 23.3342 22.9595 23.3342 22.4991V20.8325H25.8344C26.2944 20.8325 26.6675 20.4594 26.6675 19.9994C26.6675 19.5389 26.2944 19.1659 25.8344 19.1659H23.3342V15.8326H27.501V18.3327C27.501 18.7928 27.874 19.1659 28.3341 19.1659C28.7945 19.1659 29.1676 18.7928 29.1676 18.3327V15.8326H33.3339V17.4992C33.3339 17.9597 33.707 18.3327 34.1674 18.3327C34.6275 18.3327 35.0006 17.9597 35.0006 17.4992V15.8326H38.3342C38.7942 15.8326 39.1673 16.2057 39.1673 16.6661V18.3327C39.1673 18.7928 39.5404 19.1659 40.0008 19.1659C40.4608 19.1659 40.8339 18.7928 40.8339 18.3327V16.6661C40.8339 15.2852 39.7147 14.166 38.3342 14.166H6.6677C5.28718 14.166 4.16797 15.2852 4.16797 16.6661V38.3325C4.16797 39.713 5.28718 40.8323 6.6677 40.8323H18.3344C18.7944 40.8323 19.1675 40.4592 19.1675 39.9991C19.1675 39.5387 18.7944 39.1656 18.3344 39.1656H17.5009V35.8324C17.9613 35.8324 18.3344 35.4593 18.3344 34.9989C18.3344 34.5389 17.9613 34.1658 17.5009 34.1658V30.8326H18.3344ZM15.8343 29.1659H11.6675V25.8327H15.8343V29.1659ZM5.83458 20.8325H10.0009V24.1657H5.83458V20.8325ZM5.83458 30.8326H10.0009V34.1658H5.83458V30.8326ZM5.83458 29.1659V25.8327H10.0009V29.1659H5.83458ZM15.8343 24.1657H11.6675V20.8325H15.8343V24.1657ZM11.6675 19.1659V15.8326H15.8343V19.1659H11.6675ZM21.6676 19.1659H17.5009V15.8326H21.6676V19.1659ZM6.6677 15.8326H10.0009V19.1659H5.83458V16.6661C5.83458 16.2057 6.20766 15.8326 6.6677 15.8326ZM5.83458 38.3325V35.8324H10.0009V39.1656H6.6677C6.20766 39.1656 5.83458 38.7926 5.83458 38.3325ZM15.8343 39.1656H11.6675V35.8324H15.8343V39.1656ZM15.8343 34.1658H11.6675V30.8326H15.8343V34.1658Z" fill="#CB9C71"/>
<path d="M38.3335 31.6659C38.3335 32.1263 38.7065 32.4994 39.1666 32.4994C39.627 32.4994 40.0001 32.1263 40.0001 31.6659C40.0001 29.606 38.1942 27.8943 35.8333 27.5617V27.4995C35.8333 27.0391 35.4603 26.666 34.9999 26.666C34.5398 26.666 34.1667 27.0391 34.1667 27.4995V27.5617C31.8059 27.8951 30 29.606 30 31.6659C30 33.7258 31.8059 35.4374 34.1667 35.77V40.7432C32.7332 40.4643 31.6666 39.4935 31.6666 38.3327C31.6666 37.8723 31.2935 37.4992 30.8335 37.4992C30.3731 37.4992 30 37.8723 30 38.3327C30 40.3926 31.8059 42.1042 34.1667 42.4365V42.4991C34.1667 42.9595 34.5398 43.3326 34.9999 43.3326C35.4603 43.3326 35.8333 42.9595 35.8333 42.4991V42.4365C38.1942 42.1035 40.0001 40.3926 40.0001 38.3327C40.0001 36.2724 38.1942 34.5608 35.8333 34.2285V29.255C37.2665 29.5342 38.3335 30.5043 38.3335 31.6659ZM31.6666 31.6659C31.6666 30.5043 32.7332 29.5342 34.1667 29.255V34.0767C32.7332 33.7975 31.6666 32.8278 31.6666 31.6659ZM38.3335 38.3327C38.3335 39.4943 37.2665 40.4643 35.8333 40.7432V35.9219C37.2665 36.2007 38.3335 37.1708 38.3335 38.3327Z" fill="#CB9C71"/>
</g>
<defs>
<clipPath id="clip0">
<rect width="50" height="50" fill="white"/>
</clipPath>
</defs>
</svg>
