<svg width="50" height="51" viewBox="0 0 50 51" fill="none" xmlns="http://www.w3.org/2000/svg">
<path d="M47.4997 21.666H30.8322C29.4514 21.666 28.332 22.7853 28.332 24.1662V47.5007C28.332 48.8815 29.4514 50.0009 30.8322 50.0009H47.4997C48.8805 50.0009 49.9999 48.8815 49.9999 47.5007V24.1662C49.9999 22.7853 48.8805 21.666 47.4997 21.666ZM38.3326 48.3341H30.8322C30.3719 48.3341 29.9988 47.961 29.9988 47.5007V41.6671H38.3326V48.3341ZM38.3326 40.0003H29.9988V33.3333H38.3326V40.0003ZM48.3331 47.5007C48.3331 47.961 47.96 48.3341 47.4997 48.3341H39.9993V41.6671H48.3331V47.5007ZM48.3331 40.0003H39.9993V33.3333H48.3331V40.0003ZM48.3331 31.6666H29.9988V24.1662C29.9988 23.7059 30.3719 23.3328 30.8322 23.3328H47.4997C47.96 23.3328 48.3331 23.7059 48.3331 24.1662V31.6666Z" fill="#CB9C71"/>
<path d="M45.8354 25H32.5013C32.0411 25 31.668 25.3731 31.668 25.8334V29.1669C31.668 29.6271 32.0411 30.0003 32.5013 30.0003H45.8354C46.2956 30.0003 46.6688 29.6271 46.6688 29.1669V25.8334C46.6688 25.3731 46.2956 25 45.8354 25ZM45.002 28.3335H33.3347V26.6668H45.002V28.3335Z" fill="#CB9C71"/>
<path d="M35.0015 35.8347V34.168H33.3347V35.8347H31.668V37.5015H33.3347V39.1682H35.0015V37.5015H36.6682V35.8347H35.0015Z" fill="#CB9C71"/>
<path d="M46.6721 35.834H41.6719V37.5007H46.6721V35.834Z" fill="#CB9C71"/>
<path d="M36.5222 43.9245L35.3438 42.7461L34.1654 43.9245L32.987 42.7461L31.8086 43.9245L32.987 45.1029L31.8086 46.2813L32.987 47.4597L34.1654 46.2813L35.3438 47.4597L36.5222 46.2813L35.3438 45.1029L36.5222 43.9245Z" fill="#CB9C71"/>
<path d="M46.6721 44.1699H41.6719V45.8367H46.6721V44.1699Z" fill="#CB9C71"/>
<path d="M45.0027 46.2539H43.3359V47.0873H45.0027V46.2539Z" fill="#CB9C71"/>
<path d="M45.0027 42.9199H43.3359V43.7533H45.0027V42.9199Z" fill="#CB9C71"/>
<path d="M33.3351 0H9.16716V0.0075004C8.94715 0.0048961 8.73506 0.0901091 8.57796 0.24418L0.24418 8.57796C0.0899007 8.73495 0.00468775 8.94705 0.0075004 9.16716H0V48.3359C0 49.2565 0.746186 50.0027 1.66676 50.0027H26.6681V48.3359H21.6678V45.8358H23.3346C23.7948 45.8358 24.168 45.4627 24.168 45.0024V40.8355C24.168 40.3753 23.7948 40.0022 23.3346 40.0022H21.6678V37.502H23.3346C23.7948 37.502 24.168 37.1289 24.168 36.6686V32.5018C24.168 32.0415 23.7948 31.6684 23.3346 31.6684H23.3129C25.4217 30.1008 26.6656 27.6289 26.6681 25.0014C26.6771 20.3987 22.9531 16.6604 18.3506 16.6514C13.748 16.6425 10.0095 20.3664 10.0005 24.969C9.99544 27.6073 11.2399 30.0923 13.3557 31.6684H6.66703C6.20679 31.6684 5.83365 32.0415 5.83365 32.5018V35.8353H4.16689C3.70666 35.8353 3.33351 36.2084 3.33351 36.6686V40.8355C3.33351 41.2958 3.70666 41.6689 4.16689 41.6689H5.83365V44.1691H4.16689C3.70666 44.1691 3.33351 44.5422 3.33351 45.0024V48.3359H1.66676V10.0005H8.33378C9.25435 10.0005 10.0005 9.25435 10.0005 8.33378V1.66676H33.3351V20.0011H35.0019V1.66676C35.0019 0.746186 34.2557 0 33.3351 0ZM22.5012 41.6689V44.1691H7.50041V41.6689H22.5012ZM11.6673 25.0014C11.6673 21.3193 14.6523 18.3343 18.3343 18.3343C22.0164 18.3343 25.0014 21.3193 25.0014 25.0014C25.0014 28.6834 22.0164 31.6684 18.3343 31.6684C14.6539 31.6642 11.6715 28.6818 11.6673 25.0014ZM7.50041 33.3351H22.5012V35.8353H7.50041V33.3351ZM5.00027 40.0022V37.502H20.0011V40.0022H6.66703H5.00027ZM5.00027 45.8358H20.0011V48.3359H5.00027V45.8358ZM8.33378 8.33378H2.84515L8.33378 2.84515V8.33378Z" fill="#CB9C71"/>
<path d="M18.3361 22.5021H20.8362V20.8353H19.1695V20.002H17.5027V20.9887C16.2034 21.4463 15.521 22.8707 15.9788 24.17C16.3309 25.1696 17.2762 25.8377 18.3361 25.8356C18.7963 25.8356 19.1695 26.2087 19.1695 26.669C19.1695 27.1292 18.7963 27.5024 18.3361 27.5024H15.8359V29.1691H17.5027V30.0025H19.1695V29.0158C20.4688 28.5581 21.1511 27.1338 20.6934 25.8345C20.3413 24.8348 19.3959 24.1668 18.3361 24.1688C17.8758 24.1688 17.5027 23.7957 17.5027 23.3355C17.5027 22.8752 17.8758 22.5021 18.3361 22.5021Z" fill="#CB9C71"/>
<path d="M46.6685 4.16689H45.0018C45.0018 3.70666 44.6286 3.33351 44.1684 3.33351H43.335V0.833378C43.335 0.373145 42.9619 0 42.5016 0H39.1681C38.7079 0 38.3347 0.373145 38.3347 0.833378V3.33351H37.5013C37.0411 3.33351 36.668 3.70666 36.668 4.16689V20.0011H38.3347V5.00027H43.335V20.0011H45.0018V5.83365H46.6685V16.6676H48.3353V5.83365C48.3353 4.91308 47.5891 4.16689 46.6685 4.16689ZM41.6682 3.33351H40.0015V1.66676H41.6682V3.33351Z" fill="#CB9C71"/>
<path d="M26.6635 6.66797H12.4961V8.33473H26.6635V6.66797Z" fill="#CB9C71"/>
<path d="M31.6669 11.6699H3.33203V13.3367H31.6669V11.6699Z" fill="#CB9C71"/>
<path d="M13.3326 15.0039H3.33203V16.6707H13.3326V15.0039Z" fill="#CB9C71"/>
<path d="M31.6684 15.002H24.168V16.6687H31.6684V15.002Z" fill="#CB9C71"/>
</svg>
