<svg width="101" height="100" viewBox="0 0 101 100" fill="none" xmlns="http://www.w3.org/2000/svg">
<path d="M43.2932 83.3332C42.8663 74.9992 38.2682 67.4417 31.0632 63.2315L19.5499 50.4399C18.0014 48.6853 15.5997 47.9474 13.3333 48.5299V26.6666C13.3333 22.9848 10.3485 20 6.66665 20C2.98478 20 0 22.9848 0 26.6666V58.2116C0.00166666 60.7618 0.651457 63.2697 1.88833 65.4999L16.6666 92.0981V98.3331C16.6666 99.2535 17.4129 99.9998 18.3333 99.9998H41.6666C42.587 99.9998 43.3332 99.2535 43.3332 98.3331V83.3332H43.2932ZM39.9999 96.6665H19.9999V91.6665C19.9999 91.3829 19.9277 91.1042 19.7899 90.8565L4.80165 63.8782C3.84041 62.1441 3.3352 60.1943 3.33332 58.2116V26.6666C3.33332 24.8256 4.82561 23.3333 6.66665 23.3333C8.50768 23.3333 9.99997 24.8256 9.99997 26.6666V50.5883C7.91456 53.0118 7.96248 56.6095 10.1116 58.9766L23.7666 73.9999L26.2333 71.7565L12.5783 56.7349C11.49 55.5378 11.5339 53.6968 12.6783 52.5532C13.8604 51.3701 15.7779 51.3693 16.961 52.5516C16.9995 52.5901 17.0368 52.6295 17.0733 52.6699L28.7616 65.6565C28.9103 65.8061 29.0785 65.9351 29.2616 66.0399C35.8947 69.8405 39.9901 76.8967 39.9999 84.5415V96.6665Z" fill="#D09E70"/>
<path d="M93.3345 20C89.6527 20 86.6679 22.9848 86.6679 26.6666V48.5299C86.1277 48.3933 85.5718 48.3272 85.0146 48.3333C83.2675 48.3722 81.615 49.1345 80.4512 50.4383L68.9413 63.2266C61.7265 67.4297 57.1244 74.9938 56.708 83.3332H56.668V98.3331C56.668 99.2535 57.4142 99.9998 58.3346 99.9998H81.6679C82.5883 99.9998 83.3346 99.2535 83.3346 98.3331V92.0948L97.9295 65.6415C99.2851 63.3363 100 60.7109 100.001 58.0366V26.6666C100.001 22.9848 97.0164 20 93.3345 20ZM96.6679 58.0366C96.6654 60.1318 96.1014 62.1882 95.0345 63.9915L80.2012 90.8615C80.0677 91.1088 79.9989 91.3856 80.0012 91.6665V96.6665H60.0013V84.5415C60.0217 76.8669 64.1519 69.7913 70.8246 65.9999C70.9798 65.9117 71.12 65.7993 71.2396 65.6665L82.9279 52.6666C84.0504 51.4239 85.9677 51.3266 87.2104 52.4491C88.4531 53.5716 88.5504 55.4889 87.4279 56.7316L73.7679 71.7532L76.2346 73.9999L89.8895 58.9799C92.0408 56.6122 92.0885 53.0122 90.0012 50.5883V26.6666C90.0012 24.8256 91.4935 23.3333 93.3345 23.3333C95.1756 23.3333 96.6679 24.8256 96.6679 26.6666V58.0366Z" fill="#D09E70"/>
<path d="M69.9986 41.6666H66.6653C60.6865 41.673 55.0872 44.5972 51.6653 49.4999V38.3332H53.332C63.4521 38.3214 71.6534 30.1201 71.6652 19.9999C71.6652 19.0795 70.919 18.3333 69.9986 18.3333H66.6653C60.6865 18.3397 55.0872 21.2639 51.6653 26.1666V15H53.332C60.6924 14.9916 66.6569 9.02706 66.6653 1.66666C66.6653 0.746248 65.919 0 64.9986 0H61.6653C56.8115 0.00291666 52.343 2.64333 49.9986 6.89331C47.6543 2.64333 43.1857 0.00291666 38.332 0H34.9987C34.0783 0 33.332 0.746248 33.332 1.66666C33.3404 9.02706 39.3049 14.9916 46.6653 15H48.332V26.1666C44.9101 21.2639 39.3108 18.3397 33.332 18.3333H29.9987C29.0783 18.3333 28.332 19.0795 28.332 19.9999C28.3439 30.1201 36.5451 38.3214 46.6653 38.3332H48.332V49.4999C44.9101 44.5972 39.3108 41.673 33.332 41.6666H29.9987C29.0783 41.6666 28.332 42.4128 28.332 43.3332C28.3439 53.4534 36.5451 61.6546 46.6653 61.6665H48.332V74.9998H51.6653V61.6665H53.332C63.4521 61.6546 71.6534 53.4534 71.6652 43.3332C71.6652 42.4128 70.919 41.6666 69.9986 41.6666ZM66.6653 21.6666H68.2403C67.3819 29.2543 60.968 34.9907 53.332 34.9999H51.757C52.6153 27.4122 59.0292 21.6758 66.6653 21.6666ZM61.6653 3.33332H63.1936C62.3738 8.14164 58.2097 11.6606 53.332 11.6666H51.8036C52.6234 6.85831 56.7876 3.33937 61.6653 3.33332ZM46.6653 11.6666C41.7876 11.6606 37.6235 8.14164 36.8037 3.33332H38.332C43.2097 3.33937 47.3739 6.85831 48.1936 11.6666H46.6653ZM46.6653 34.9999C39.0293 34.9907 32.6154 29.2543 31.757 21.6666H33.332C40.968 21.6758 47.382 27.4122 48.2403 34.9999H46.6653ZM46.6653 58.3332C39.0293 58.324 32.6154 52.5876 31.757 44.9999H33.332C40.968 45.009 47.382 50.7455 48.2403 58.3332H46.6653ZM53.332 58.3332H51.757C52.6153 50.7455 59.0292 45.009 66.6653 44.9999H68.2403C67.3819 52.5876 60.968 58.324 53.332 58.3332Z" fill="#D09E70"/>
</svg>
