<svg width="100" height="100" viewBox="0 0 100 100" fill="none" xmlns="http://www.w3.org/2000/svg">
<path d="M56.6654 45.0007V41.6673C56.6654 40.7461 55.9191 40.0007 54.9987 40.0007H51.6654V38.334H48.332V40.0007H44.9987C44.0783 40.0007 43.332 40.7461 43.332 41.6673V50.0007C43.332 50.9219 44.0783 51.6674 44.9987 51.6674H53.332V56.6674H46.6654V55.0007H43.332V58.334C43.332 59.2553 44.0783 60.0007 44.9987 60.0007H48.332V61.6674H51.6654V60.0007H54.9987C55.9191 60.0007 56.6654 59.2553 56.6654 58.334V50.0007C56.6654 49.0794 55.9191 48.334 54.9987 48.334H46.6654V43.334H53.332V45.0007H56.6654Z" fill="#D09E70"/>
<path d="M63.5541 73.6452C60.4291 69.275 55.3616 66.666 49.9987 66.666C44.9214 66.666 40.1947 68.935 37.0381 72.8835C34.6479 75.8279 33.332 79.5388 33.332 83.3327C33.332 87.1267 34.6479 90.8375 37.0308 93.7738C40.1947 97.7305 44.9214 99.9994 49.9987 99.9994C55.076 99.9994 59.8027 97.7305 62.9593 93.7819C65.3495 90.8375 66.6654 87.1267 66.6654 83.3327C66.6654 79.8188 65.5879 76.4675 63.5541 73.6452ZM60.3641 91.6905C57.8356 94.853 54.057 96.6661 49.9987 96.6661C45.9404 96.6661 42.1618 94.853 39.626 91.6823C37.7168 89.3288 36.6654 86.365 36.6654 83.3327C36.6654 80.3004 37.7168 77.3367 39.6333 74.975C42.1618 71.8125 45.9404 69.9994 49.9987 69.9994C54.2883 69.9994 58.3418 72.0875 60.8466 75.5902C62.4727 77.846 63.332 80.5236 63.332 83.3327C63.332 86.365 62.2806 89.3288 60.3641 91.6905Z" fill="#D09E70"/>
<path d="M56.6679 78.3347V77.5013C56.6679 74.2851 54.0506 71.668 50.8346 71.668C47.6186 71.668 45.0013 74.2853 45.0013 77.5013V80.0013H43.3346V83.3347H45.0013V85.0013H43.3346V88.3347H43.5538L41.9479 90.7436C41.6069 91.2547 41.5752 91.9122 41.865 92.4543C42.1554 92.9961 42.7202 93.3347 43.3346 93.3347H56.6679V90.0013H46.449L47.56 88.3347H51.6679V85.0013H48.3346V83.3347H51.6679V80.0013H48.3346V77.5013C48.3346 76.1228 49.4561 75.0013 50.8346 75.0013C52.2131 75.0013 53.3346 76.1228 53.3346 77.5013V78.3347H56.6679Z" fill="#D09E70"/>
<path d="M28.3323 71.6666V65C28.3323 64.3685 27.9759 63.7922 27.4111 63.5091L20.7444 60.1758L19.2536 63.1577L22.9576 65.0098C17.1865 68.5364 13.7148 74.6527 13.7148 81.6667C13.7148 89.8584 18.4398 96.8375 26.0463 99.8813L27.2848 96.7857C20.9705 94.2596 17.048 88.4669 17.048 81.6669C17.048 75.7308 20.039 70.5648 24.9988 67.6668V71.6666H28.3323Z" fill="#D09E70"/>
<path d="M86.2853 78.3318C86.2853 70.1401 81.5603 63.1609 73.9538 60.1172L72.7153 63.2128C79.0296 65.7389 82.9521 71.5316 82.9521 78.3316C82.9521 84.2677 79.9611 89.4337 75.0013 92.3316V88.3318H71.668V94.9985C71.668 95.63 72.0244 96.2062 72.5892 96.4894L79.2559 99.8227L80.7467 96.8408L77.0428 94.9887C82.8136 91.4621 86.2853 85.3458 86.2853 78.3318Z" fill="#D09E70"/>
<path d="M63.5541 6.97918C60.4291 2.60896 55.3616 0 49.9987 0C44.9214 0 40.1947 2.26896 37.0381 6.21752C34.6479 9.1619 33.332 12.8727 33.332 16.6667C33.332 20.4607 34.6479 24.1715 37.0308 27.1078C40.1947 31.0645 44.9214 33.3334 49.9987 33.3334C55.076 33.3334 59.8027 31.0645 62.9593 27.1159C65.3495 24.1715 66.6654 20.4607 66.6654 16.6667C66.6654 13.1527 65.5879 9.80148 63.5541 6.97918ZM60.3641 25.0244C57.8356 28.1869 54.057 30.0001 49.9987 30.0001C45.9404 30.0001 42.1618 28.1869 39.626 25.0163C37.7168 22.6628 36.6654 19.699 36.6654 16.6667C36.6654 13.6344 37.7168 10.6707 39.6333 8.30898C42.1618 5.14647 45.9404 3.33334 49.9987 3.33334C54.2883 3.33334 58.3418 5.42147 60.8466 8.92419C62.4727 11.18 63.332 13.8575 63.332 16.6667C63.332 19.699 62.2806 22.6628 60.3641 25.0244Z" fill="#D09E70"/>
<path d="M51.6679 15.6895L57.8463 9.51097L55.4896 7.1543L50.0012 12.6426L44.5129 7.1543L42.1562 9.51097L48.3346 15.6895V16.666H45.0013V19.9993H48.3346V21.666H45.0013V24.9993H48.3346V26.666H51.6679V24.9993H55.0013V21.666H51.6679V19.9993H55.0013V16.666H51.6679V15.6895Z" fill="#D09E70"/>
<path d="M77.0428 5.00975L80.7467 3.15766L79.2559 0.175781L72.5892 3.50912C72.0244 3.79246 71.668 4.36871 71.668 5.00017V11.6669H75.0013V7.66684C79.9611 10.5648 82.9521 15.7308 82.9521 21.6669C82.9521 28.4671 79.0296 34.2596 72.7153 36.7857L73.9538 39.8813C81.5605 36.8377 86.2853 29.8586 86.2853 21.6667C86.2855 14.6529 82.8138 8.53663 77.0428 5.00975Z" fill="#D09E70"/>
<path d="M24.999 28.3338V32.3338C20.0392 29.4359 17.0482 24.2698 17.0482 18.3338C17.0482 11.5335 20.9707 5.74103 27.2851 3.21498L26.0463 0.119141C18.4398 3.1629 13.7148 10.1421 13.7148 18.3338C13.7148 25.3477 17.1867 31.464 22.9576 34.9909L19.2536 36.843L20.7444 39.8249L27.4111 36.4915C27.9759 36.2084 28.3323 35.6321 28.3323 35.0007V28.334H24.999V28.3338Z" fill="#D09E70"/>
<path d="M93.3333 48.334C92.6156 48.334 91.9792 48.793 91.7521 49.4734L90 54.7305L84.9146 39.4734C84.6875 38.793 84.051 38.334 83.3333 38.334C82.6156 38.334 81.9792 38.793 81.7521 39.4734L78.7988 48.334H66.575C66.2885 45.4323 65.2646 42.6848 63.5556 40.3132C60.4306 35.9429 55.3631 33.334 50.0002 33.334C44.9229 33.334 40.1962 35.6029 37.0396 39.5515C35.0012 42.0623 33.7529 45.1323 33.4271 48.334H20C19.2823 48.334 18.6458 48.793 18.4188 49.4734L16.6667 54.7305L11.5813 39.4734C11.3542 38.793 10.7177 38.334 10 38.334C9.28229 38.334 8.64583 38.793 8.41875 39.4734L5.46542 48.334H0V51.6674H6.66667C7.38437 51.6674 8.02083 51.2084 8.24792 50.528L10 45.2709L15.0854 60.528C15.3125 61.2084 15.949 61.6674 16.6667 61.6674C17.3844 61.6674 18.0208 61.2084 18.2479 60.528L21.2013 51.6674H33.4269C33.7527 54.8692 35.0002 57.938 37.0321 60.4418C40.196 64.3984 44.9227 66.6674 50 66.6674C55.0773 66.6674 59.804 64.3984 62.9606 60.4499C64.999 57.939 66.2473 54.869 66.5731 51.6674H80C80.7177 51.6674 81.3542 51.2084 81.5812 50.528L83.3333 45.2709L88.4187 60.528C88.6458 61.2084 89.2823 61.6674 90 61.6674C90.7177 61.6674 91.3542 61.2084 91.5812 60.528L94.5346 51.6674H100V48.334H93.3333ZM60.3654 58.3584C57.8369 61.5209 54.0583 63.3341 50 63.3341C45.9417 63.3341 42.1631 61.5209 39.6273 58.3503C37.7181 55.9967 36.6667 53.033 36.6667 50.0007C36.6667 46.9684 37.7181 44.0046 39.6346 41.643C42.1631 38.4805 45.9417 36.6673 50 36.6673C54.2896 36.6673 58.3431 38.7555 60.8479 42.2582C62.474 44.514 63.3333 47.1915 63.3333 50.0007C63.3333 53.033 62.2819 55.9967 60.3654 58.3584Z" fill="#D09E70"/>
</svg>
