<svg width="120" height="86" viewBox="0 0 120 86" fill="none" xmlns="http://www.w3.org/2000/svg">
<path d="M4.38739 82.2609H33.1061L28.61 67.3012H8.89149L4.38739 82.2609ZM35.6218 85.9998H1.87191V85.9957C1.69623 85.9957 1.51642 85.9722 1.33682 85.9181C0.348391 85.626 -0.217881 84.5862 0.0789805 83.5968L5.67268 65.0072C5.86405 64.1779 6.61013 63.5586 7.50071 63.5586H30.0006V63.5627C30.8053 63.5627 31.5514 64.0845 31.7935 64.8985L37.3794 83.4683C37.4574 83.6748 37.5006 83.8965 37.5006 84.1305C37.5006 85.1625 36.6568 85.9998 35.6218 85.9998Z" fill="#D09E70"/>
<path d="M86.8897 82.2609H115.608L111.108 67.3012H91.3897L86.8897 82.2609ZM118.124 85.9998H84.3741V85.9957C84.1984 85.9957 84.0186 85.9722 83.839 85.9181C82.8507 85.626 82.2843 84.5862 82.5772 83.5968L88.1707 65.0072C88.3623 64.1779 89.1082 63.5586 89.9987 63.5586H112.499V63.5627C113.303 63.5627 114.049 64.0845 114.292 64.8985L119.878 83.4683C119.956 83.6748 119.999 83.8965 119.999 84.1305C119.999 85.1625 119.159 85.9998 118.124 85.9998Z" fill="#D09E70"/>
<path d="M45.6395 82.2609H74.3582L69.8585 67.3012H50.1397L45.6395 82.2609ZM76.8739 85.9998H43.1241V85.9957C42.9484 85.9957 42.7686 85.9722 42.589 85.9181C41.6007 85.626 41.0343 84.5862 41.3272 83.5968L46.9209 65.0072C47.1123 64.1779 47.8584 63.5586 48.7489 63.5586H71.2488V63.5627C72.0535 63.5627 72.7996 64.0845 73.0422 64.8985L78.6278 83.4683C78.7059 83.6748 78.7488 83.8965 78.7488 84.1305C78.749 85.1625 77.9092 85.9998 76.8739 85.9998Z" fill="#D09E70"/>
<path d="M23.1319 56.0853H51.8504L47.3544 41.1297H27.6358L23.1319 56.0853ZM54.3661 59.8279H20.6163V59.8238C20.4406 59.8238 20.2608 59.8004 20.0812 59.7462C19.0927 59.4541 18.5265 58.4143 18.8194 57.4249L24.417 38.8356C24.6084 38.01 25.3545 37.3906 26.2451 37.3906H48.745V37.3945C49.5497 37.3945 50.2957 37.9165 50.5379 38.7265L56.1237 57.2962C56.2018 57.5027 56.2449 57.7244 56.2449 57.9584C56.241 58.9867 55.3975 59.8279 54.3661 59.8279Z" fill="#D09E70"/>
<path d="M68.1397 56.0853H96.8582L92.3585 41.1297H72.6397L68.1397 56.0853ZM99.3739 59.8279H65.6241V59.8238C65.4484 59.8238 65.2686 59.8004 65.089 59.7462C64.1007 59.4541 63.5343 58.4143 63.8272 57.4249L69.4207 38.8356C69.6123 38.0061 70.3582 37.3867 71.2487 37.3867H93.7486V37.3906C94.5533 37.3906 95.2994 37.9124 95.542 38.7226L101.128 57.2925C101.206 57.4992 101.249 57.7209 101.249 57.9549C101.249 58.9867 100.409 59.8279 99.3739 59.8279Z" fill="#D09E70"/>
<path d="M76.8712 29.9093C77.9063 29.9093 78.7463 30.7467 78.7463 31.7789C78.7463 32.8111 77.9065 33.6484 76.8712 33.6484H59.9962H43.1212C42.0861 33.6484 41.2461 32.8111 41.2461 31.7789C41.2461 31.5453 41.2851 31.3232 41.3673 31.1207L46.957 12.5507C47.1992 11.7405 47.9453 11.2188 48.75 11.2188V11.2109H54.379C55.4141 11.2109 56.2541 12.0522 56.2541 13.0805C56.2541 14.1125 55.4143 14.95 54.379 14.95H50.1408L45.6369 29.9095H59.9962L76.8712 29.9093Z" fill="#D09E70"/>
<path d="M74.7987 1.0258L78.2912 7.93489L85.2208 11.4167C86.1428 11.8763 86.5098 13.0018 86.049 13.921C85.8616 14.2911 85.5647 14.5715 85.2208 14.7466L78.2912 18.2286L74.7987 25.1377C74.3377 26.057 73.2091 26.4269 72.2869 25.9633C71.9156 25.7764 71.6346 25.4805 71.4585 25.1377L67.9664 18.2286L61.0366 14.7466C60.1147 14.287 59.7435 13.1615 60.2082 12.2423C60.3956 11.8722 60.6929 11.5919 61.0366 11.4165L67.9664 7.9347L71.4585 1.0256C71.9197 0.106368 73.0483 -0.263514 73.9705 0.199816C74.3416 0.387103 74.6228 0.683087 74.7987 1.0258ZM75.2283 10.1628L73.1267 6.011L71.0291 10.1628C70.8534 10.5094 70.5721 10.8015 70.2007 10.9884L66.0329 13.0837L70.2007 15.1752C70.5448 15.3503 70.8417 15.6309 71.0291 16.0009L73.1267 20.1566L75.2242 16.0009C75.3999 15.6543 75.6812 15.3623 76.0526 15.1752L80.2204 13.0837L76.0565 10.9884C75.7087 10.8132 75.412 10.5327 75.2283 10.1628Z" fill="#D09E70"/>
</svg>
