<svg width="39" height="23" viewBox="0 0 39 23" fill="none" xmlns="http://www.w3.org/2000/svg">
<path d="M24.5766 2.40234H14.4961V19.8037H24.5766V2.40234Z" fill="#FF5F00"/>
<path d="M15.1392 11.1037C15.1392 7.72186 16.7713 4.4937 19.5554 2.40308C14.5632 -1.37848 7.29884 -0.548381 3.39465 4.27849C-0.509531 9.10536 0.322508 16.0536 5.34675 19.8044C9.53895 22.9711 15.3952 22.9711 19.5874 19.8044C16.7393 17.683 15.1072 14.4856 15.1392 11.1037Z" fill="#EB001B"/>
<path d="M38.1444 11.1013C38.1444 17.2194 32.9922 22.1693 26.6239 22.1693C24.0317 22.1693 21.5356 21.3392 19.5195 19.8019C24.5118 16.0204 25.3758 9.04141 21.4716 4.24528C20.8956 3.53816 20.2556 2.92328 19.5195 2.36988C24.5118 -1.41168 31.7761 -0.581584 35.7123 4.24528C37.2804 6.18218 38.1444 8.61099 38.1444 11.1013Z" fill="#F79E1B"/>
</svg>
