<svg width="253" height="39" viewBox="0 0 253 39" fill="none" xmlns="http://www.w3.org/2000/svg">
<path d="M14.5605 38.9C23.0205 38.9 28.7205 31.16 28.7205 19.52C28.7205 7.94 23.0205 0.140001 14.5605 0.140001C6.16055 0.140001 0.400547 7.94 0.400547 19.52C0.400547 31.16 6.16055 38.9 14.5605 38.9ZM14.5605 37.04C9.70055 37.04 8.02055 29.54 8.02055 19.52C8.02055 9.86 9.70055 2 14.5605 2C19.3605 2 21.1005 9.86 21.1005 19.52C21.1005 29.54 19.3605 37.04 14.5605 37.04ZM47.6074 38.9C56.0674 38.9 61.7674 31.16 61.7674 19.52C61.7674 7.94 56.0674 0.140001 47.6074 0.140001C39.2074 0.140001 33.4474 7.94 33.4474 19.52C33.4474 31.16 39.2074 38.9 47.6074 38.9ZM47.6074 37.04C42.7474 37.04 41.0674 29.54 41.0674 19.52C41.0674 9.86 42.7474 2 47.6074 2C52.4074 2 54.1474 9.86 54.1474 19.52C54.1474 29.54 52.4074 37.04 47.6074 37.04ZM80.1677 14.12C80.1677 16.7 81.7277 18.08 84.1277 18.08C86.4677 18.08 88.0277 16.7 88.0277 14.12C88.0277 11.48 86.4677 10.22 84.1277 10.22C81.7277 10.22 80.1677 11.48 80.1677 14.12ZM80.1677 34.94C80.1677 37.58 81.7277 38.9 84.1277 38.9C86.4677 38.9 88.0277 37.58 88.0277 34.94C88.0277 32.36 86.4677 31.04 84.1277 31.04C81.7277 31.04 80.1677 32.36 80.1677 34.94ZM120.557 38.9C129.017 38.9 134.717 31.16 134.717 19.52C134.717 7.94 129.017 0.140001 120.557 0.140001C112.157 0.140001 106.397 7.94 106.397 19.52C106.397 31.16 112.157 38.9 120.557 38.9ZM120.557 37.04C115.697 37.04 114.017 29.54 114.017 19.52C114.017 9.86 115.697 2 120.557 2C125.357 2 127.097 9.86 127.097 19.52C127.097 29.54 125.357 37.04 120.557 37.04ZM144.604 6.08L161.404 7.1L162.064 1.04H143.044L141.064 18.8H143.164C145.864 17.24 147.664 16.34 150.304 16.34C154.324 16.34 155.764 21.92 155.764 26.24C155.764 30.62 154.684 37.04 148.804 37.04C146.704 37.04 145.624 36.8 144.604 36.14L143.344 28.64H140.224C139.444 30.38 138.964 32.48 138.724 35.12C141.304 37.76 145.624 38.9 149.644 38.9C157.684 38.9 163.384 34.34 163.384 26.3C163.384 19.88 159.184 14.48 151.564 14.48C148.564 14.48 146.104 15.26 143.404 16.52C143.644 14.36 144.604 6.08 144.604 6.08ZM181.418 14.12C181.418 16.7 182.978 18.08 185.378 18.08C187.718 18.08 189.278 16.7 189.278 14.12C189.278 11.48 187.718 10.22 185.378 10.22C182.978 10.22 181.418 11.48 181.418 14.12ZM181.418 34.94C181.418 37.58 182.978 38.9 185.378 38.9C187.718 38.9 189.278 37.58 189.278 34.94C189.278 32.36 187.718 31.04 185.378 31.04C182.978 31.04 181.418 32.36 181.418 34.94Z" fill="#219653"/>
<path d="M212.807 6.08L229.607 7.1L230.267 1.04H211.247L209.267 18.8H211.367C214.067 17.24 215.867 16.34 218.507 16.34C222.527 16.34 223.967 21.92 223.967 26.24C223.967 30.62 222.887 37.04 217.007 37.04C214.907 37.04 213.827 36.8 212.807 36.14L211.547 28.64H208.427C207.647 30.38 207.167 32.48 206.927 35.12C209.507 37.76 213.827 38.9 217.847 38.9C225.887 38.9 231.587 34.34 231.587 26.3C231.587 19.88 227.387 14.48 219.767 14.48C216.767 14.48 214.307 15.26 211.607 16.52C211.847 14.36 212.807 6.08 212.807 6.08ZM252.447 36.32L250.227 35.84C249.087 35.54 248.247 35.3 248.247 34.16V0.559999H246.807L234.927 6.5L234.807 8.6L241.467 7.04L241.407 34.16C241.407 35.3 240.627 35.6 239.427 35.9L237.087 36.32L236.967 38H252.267L252.447 36.32Z" fill="#EB5757"/>
</svg>
