<svg width="100" height="100" viewBox="0 0 100 100" fill="none" xmlns="http://www.w3.org/2000/svg">
<path d="M99.5274 35.0176C99.8298 34.7152 100 34.3052 100 33.8774V24.2009C100 23.3103 99.2778 22.5882 98.3871 22.5882H95.1613C94.7335 22.5882 94.3234 22.7583 94.021 23.0607L84.3435 32.7372L64.9887 52.0901C64.6853 52.3919 64.5151 52.8023 64.5161 53.2303V58.0685H62.9032C62.0125 58.0685 61.2903 58.7906 61.2903 59.6813V64.5195H57.9613L54.8387 17.6435C54.7825 16.7946 54.0766 16.1354 53.2258 16.1372H51.6129V11.299C51.6129 10.4083 50.8907 9.68622 50 9.68622H46.7742V6.46074H43.5484V9.68622H40.3226C39.4319 9.68622 38.7097 10.4083 38.7097 11.299V16.1372H37.0968C36.246 16.1354 35.5401 16.7946 35.4839 17.6435L32.3613 64.5195H29.0323V56.4558C29.0323 55.5651 28.3101 54.843 27.4194 54.843H25.8064V8.07348C25.8064 7.18284 25.0843 6.46074 24.1935 6.46074H22.5806V1.62251C22.5806 0.731871 21.8585 0.00976563 20.9677 0.00976563H11.2903C10.3996 0.00976563 9.67742 0.731871 9.67742 1.62251V6.46074H8.06452C7.17379 6.46074 6.45161 7.18284 6.45161 8.07348V54.843H4.83871C3.94798 54.843 3.22581 55.5651 3.22581 56.4558V64.5195H1.6129C0.722177 64.5195 0 65.2416 0 66.1322V72.5832C0 73.4738 0.722177 74.196 1.6129 74.196H6.45161V91.5733C5.93931 91.89 5.46371 92.2625 5.03387 92.6844L0.472581 97.2469L2.75323 99.5273L7.31452 94.9649C8.22077 94.0551 9.45302 93.5452 10.7371 93.5489H11.8435C13.1276 93.5452 14.3599 94.0551 15.2661 94.9649L17.9371 97.6388C19.4466 99.1558 21.5002 100.006 23.6403 99.9998H24.7468C26.8869 100.006 28.9405 99.1558 30.45 97.6388L33.121 94.9649C34.0272 94.0551 35.2595 93.5452 36.5435 93.5489H37.65C38.9341 93.5452 40.1663 94.0551 41.0726 94.9649L43.7435 97.6388C45.253 99.1558 47.3066 100.006 49.4468 99.9998H50.5532C52.6933 100.006 54.747 99.1558 56.2565 97.6388L58.9274 94.9649C59.8337 94.0551 61.0659 93.5452 62.35 93.5489H63.4565C64.7405 93.5452 65.9728 94.0551 66.879 94.9649L69.55 97.6388C71.0595 99.1558 73.1131 100.006 75.2532 99.9998H76.3597C78.4998 100.006 80.5534 99.1558 82.0629 97.6388L84.7339 94.9649C85.6401 94.0551 86.8724 93.5452 88.1564 93.5489H89.2629C90.547 93.5452 91.7792 94.0551 92.6855 94.9649L97.2468 99.5273L99.5274 97.2469L94.9661 92.6844C94.5363 92.2627 94.0607 91.89 93.5484 91.5733V74.196H98.3871C99.2778 74.196 100 73.4738 100 72.5832V66.1322C100.001 65.7035 99.8302 65.2924 99.5258 64.9904L93.0742 58.5394C92.772 58.2379 92.3625 58.0685 91.9355 58.0685H80.6452V53.898L86.6226 47.9211L93.5484 40.996V46.7793C93.5484 47.67 94.2706 48.3921 95.1613 48.3921C96.052 48.3921 96.7742 49.1142 96.7742 50.0048C96.7742 50.8954 96.052 51.6175 95.1613 51.6175C94.2706 51.6175 93.5484 50.8954 93.5484 50.0048H90.3226C90.3232 52.6769 92.4899 54.8426 95.1623 54.842C97.8347 54.8414 100.001 52.6749 100 50.0028C99.9996 47.9528 98.7073 46.1256 96.7742 45.4422V37.7705L99.5274 35.0176ZM67.7419 54.843H77.4193V58.0685H67.7419V54.843ZM41.9355 12.9117H48.3871V16.1372H41.9355V12.9117ZM38.6064 19.3627H51.7161L52.1306 25.5621L38.3758 22.8123L38.6064 19.3627ZM38.1564 26.0572L52.35 28.8956L52.5806 32.2646H37.7419L38.1564 26.0572ZM37.5306 35.4901H52.7952L53.029 38.9962L37.1242 41.646L37.5306 35.4901ZM36.9 44.9521L53.2419 42.2298L53.6516 48.3921H36.671L36.9 44.9521ZM36.4516 51.6175H53.871L54.279 57.746L36.2145 55.1656L36.4516 51.6175ZM36.0048 58.3911L54.4952 61.0327L54.7274 64.5195H35.5952L36.0048 58.3911ZM22.5806 11.9666V20.3078L18.4097 16.1372L22.5806 11.9666ZM21.9129 40.3283L16.129 46.1116L10.3452 40.3283L16.129 34.545L21.9129 40.3283ZM10.3452 24.2009L16.129 18.4176L21.9129 24.2009L16.129 29.9842L10.3452 24.2009ZM20.3 54.843H11.9581L16.129 50.6725L20.3 54.843ZM18.4097 48.3921L22.5806 44.2215V52.5626L18.4097 48.3921ZM18.4097 32.2646L22.5806 28.0941V36.4352L18.4097 32.2646ZM12.9032 3.23525H19.3548V6.46074H12.9032V3.23525ZM20.3 9.68622L16.129 13.8568L11.9581 9.68622H20.3ZM9.67742 11.9666L13.8484 16.1372L9.67742 20.3078V11.9666ZM9.67742 28.0941L13.8484 32.2646L9.67742 36.4352V28.0941ZM9.67742 44.2215L13.8484 48.3921L9.67742 52.5626V44.2215ZM6.45161 58.0685H25.8064V64.5195H6.45161V58.0685ZM16.129 91.5733C14.848 90.7588 13.3617 90.3252 11.8435 90.3234H10.7371C10.3821 90.3351 10.028 90.3696 9.67742 90.4266V80.6469H16.129V91.5733ZM22.5806 96.6486C21.6861 96.4526 20.8663 96.0049 20.2177 95.3584L19.3548 94.4939V80.6469H22.5806V96.6486ZM22.5806 77.4214H9.67742V74.196H22.5806V77.4214ZM74.1935 96.6486C73.299 96.4526 72.4792 96.0049 71.8306 95.3584L69.1597 92.6844C67.6502 91.1675 65.5966 90.3173 63.4565 90.3234H62.35C60.2099 90.3173 58.1562 91.1675 56.6468 92.6844L53.9758 95.3584C53.0696 96.2682 51.8373 96.778 50.5532 96.7744H49.4468C48.1627 96.778 46.9304 96.2682 46.0242 95.3584L43.3532 92.6844C41.8437 91.1675 39.7901 90.3173 37.65 90.3234H36.5435C34.4034 90.3173 32.3498 91.1675 30.8403 92.6844L28.1694 95.3584C27.5208 96.0049 26.701 96.4524 25.8064 96.6486V74.196H74.1935V96.6486ZM80.6452 94.4939L79.7822 95.3584C79.1337 96.0049 78.3139 96.4526 77.4193 96.6486V80.6469H80.6452V94.4939ZM90.3226 90.4266C89.972 90.3696 89.6179 90.3351 89.2629 90.3234H88.1564C86.6383 90.3252 85.152 90.7588 83.871 91.5733V80.6469H90.3226V90.4266ZM90.3226 77.4214H77.4193V74.196H90.3226V77.4214ZM96.7742 70.9705H3.22581V67.745H96.7742V70.9705ZM91.2677 61.294L94.4935 64.5195H64.5161V61.294H91.2677ZM78.3645 51.6175H70.0226L73.2484 48.3921H81.5903L78.3645 51.6175ZM83.871 45.1666H76.4742L83.871 37.7705V45.1666ZM87.0968 42.8862V35.4901H94.4935L87.0968 42.8862ZM89.3774 32.2646L95.829 25.8137H96.7742V32.2646H89.3774Z" fill="#D09E70"/>
<path d="M69.3556 19.3626H83.8718C87.4349 19.318 90.2873 16.3937 90.2427 12.8309C90.1982 9.2682 87.2736 6.41606 83.7105 6.46061C82.8242 2.09613 78.5673 -0.723351 74.2024 0.162851C70.4407 0.926687 67.7389 4.23543 67.7427 8.07336C67.7431 8.686 67.8151 9.29662 67.9573 9.89253C65.399 10.6648 63.951 13.3644 64.7234 15.9226C65.3399 17.9651 67.222 19.3626 69.3556 19.3626ZM69.3556 12.9116C69.5242 12.9162 69.6907 12.9479 69.8492 13.0051C70.6972 13.2781 71.6059 12.812 71.8788 11.9641C72.0242 11.5123 71.9633 11.0192 71.7121 10.6164C70.2887 8.35498 70.9684 5.36798 73.23 3.94453C75.4917 2.52108 78.4792 3.20086 79.9026 5.46233C80.3849 6.22858 80.6423 7.11458 80.6462 8.01993C80.6462 8.06348 80.6204 8.23765 80.6171 8.27958C80.5641 9.16861 81.2419 9.93245 82.1313 9.98546C82.35 9.99857 82.5692 9.96692 82.7752 9.89233C83.1258 9.75948 83.4972 9.68973 83.872 9.6859C85.6536 9.6859 87.0978 11.1299 87.0978 12.9114C87.0978 14.6929 85.6536 16.1369 83.872 16.1369H69.3559C68.4651 16.1369 67.7429 15.4148 67.7429 14.5241C67.7429 13.6335 68.4649 12.9116 69.3556 12.9116Z" fill="#D09E70"/>
</svg>
