<svg width="75" height="27" viewBox="0 0 75 27" fill="none" xmlns="http://www.w3.org/2000/svg">
<path d="M49.8889 5.655V18.1803C49.8889 18.3787 49.738 18.5276 49.5367 18.5276H46.9461C46.7449 18.5276 46.5939 18.3787 46.5939 18.1803V5.655C46.5939 5.45657 46.7449 5.30776 46.9461 5.30776H49.5367C49.738 5.30776 49.8889 5.45657 49.8889 5.655ZM70.1112 5.30776H67.2187C67.0678 5.30776 66.9421 5.40697 66.8918 5.55579L64.6029 12.9718L62.0877 5.55579C62.0374 5.40697 61.9116 5.33256 61.7607 5.33256H59.7234C59.5725 5.33256 59.4467 5.43177 59.3964 5.55579L56.8812 12.9718L54.542 5.55579C54.4917 5.40697 54.366 5.30776 54.215 5.30776H51.3226C51.2219 5.30776 51.0962 5.35736 51.0459 5.45657C50.9704 5.55579 50.9704 5.655 50.9956 5.75421L55.2714 18.3043C55.3217 18.4531 55.4475 18.5276 55.5984 18.5276H57.9124C58.0633 18.5276 58.1891 18.4283 58.2394 18.3043L60.7295 10.9876L63.2195 18.3043C63.2698 18.4531 63.3956 18.5276 63.5465 18.5276H65.8605C66.0114 18.5276 66.1372 18.4283 66.1875 18.3043L70.4634 5.75421C70.4885 5.655 70.4885 5.53098 70.4131 5.45657C70.3376 5.35736 70.237 5.30776 70.1112 5.30776ZM74.4877 5.30776H71.897C71.6958 5.30776 71.5449 5.45657 71.5449 5.655V18.1803C71.5449 18.3787 71.6958 18.5276 71.897 18.5276H74.4877C74.6889 18.5276 74.8398 18.3787 74.8398 18.1803V5.655C74.8398 5.45657 74.6638 5.30776 74.4877 5.30776ZM45.11 18.1059C45.2609 18.2795 45.1351 18.5276 44.9087 18.5276H41.7144C41.5887 18.5276 41.4629 18.4779 41.3874 18.3787L40.8592 17.7339C39.7525 18.4283 38.4446 18.85 37.0613 18.85C33.1878 18.85 30.0438 15.7497 30.0438 11.9301C30.0438 8.11045 33.1878 5.01013 37.0613 5.01013C40.9347 5.01013 44.0787 8.11045 44.0787 11.9301C44.0787 13.2942 43.6763 14.5839 42.972 15.6753L45.11 18.1059ZM38.7968 15.3032L37.4134 13.6414C37.2625 13.4678 37.3882 13.195 37.6146 13.195H40.5323C40.6832 12.7981 40.7586 12.3517 40.7586 11.9053C40.7586 9.84664 39.1992 8.06085 37.0613 8.06085C34.9233 8.06085 33.3639 9.84664 33.3639 11.9053C33.3639 13.9639 34.9233 15.7249 37.0613 15.7249C37.6901 15.7497 38.2686 15.576 38.7968 15.3032ZM22.0454 18.0315C22.1209 18.5524 21.9448 18.7756 21.7939 18.7756C21.6178 18.7756 21.3915 18.5524 21.1148 18.1555C20.8381 17.7339 20.7375 17.2626 20.8884 17.0394C20.9639 16.8906 21.1651 16.8162 21.3915 16.8906C21.819 17.0394 21.9951 17.7091 22.0454 18.0315ZM19.5553 19.1724C20.0835 19.6189 20.2596 20.1645 19.9829 20.5366C19.832 20.735 19.5805 20.859 19.2535 20.859C18.9517 20.859 18.6499 20.7598 18.4235 20.5614C17.9456 20.1397 17.7947 19.4452 18.1217 19.0732C18.2474 18.9244 18.4487 18.85 18.7002 18.85C18.9768 18.8252 19.2787 18.9492 19.5553 19.1724ZM18.6499 23.4881C20.9639 23.4881 23.4791 24.2818 26.271 26.7124C26.5477 26.9604 26.9249 26.6628 26.6734 26.3404C23.9318 22.9424 21.4166 22.2975 18.9014 21.7519C15.8077 21.0822 14.2231 19.3708 13.1164 17.4858C12.89 17.1138 12.7894 17.1882 12.7894 17.6595C12.7643 18.2547 12.8146 19.0236 12.9403 19.7925C12.8146 19.7925 12.6888 19.7925 12.563 19.7925C8.16141 19.7925 4.56465 16.2705 4.56465 11.9053C4.56465 7.53999 8.13626 4.01802 12.563 4.01802C16.9647 4.01802 20.5614 7.53999 20.5614 11.9053C20.5614 12.2029 20.5363 12.5253 20.5111 12.823C19.9326 12.7237 18.7756 12.6989 17.9708 12.7733C17.6689 12.7981 17.7192 12.947 17.9456 12.9718C20.5866 13.443 22.3975 15.0552 22.8251 17.9819C22.8251 18.0563 22.9257 18.0811 22.9509 18.0067C24.0324 16.2209 24.6612 14.1375 24.6612 11.8805C24.6361 5.33256 19.2284 0 12.563 0C5.87256 0 0.464844 5.33256 0.464844 11.9301C0.464844 18.5276 5.87256 23.8601 12.563 23.8601C14.3237 23.8353 16.0843 23.4881 18.6499 23.4881Z" fill="#FF8C00"/>
</svg>
