<svg width="88" height="22" viewBox="0 0 88 22" fill="none" xmlns="http://www.w3.org/2000/svg">
<path d="M17.4476 9.70186C17.4476 13.4351 17.4367 17.1789 17.4585 20.9121C17.4585 21.2496 17.3604 21.3129 17.0335 21.3129C11.4762 21.3023 5.90804 21.3023 0.339844 21.3023C0.339844 17.6007 0.339844 13.8886 0.339844 10.187C0.339844 9.86005 0.372534 9.68077 0.797504 9.69131C6.34391 9.70186 11.9012 9.70186 17.4476 9.70186ZM7.82586 18.2229C8.022 18.1807 8.10917 18.0331 8.21814 17.9276C9.47125 16.7149 10.7244 15.5021 11.9775 14.2788C12.7947 13.4773 12.7947 13.4878 11.9557 12.6969C11.716 12.4754 11.5961 12.4543 11.3564 12.6969C10.452 13.6038 9.51484 14.4897 8.59952 15.3861C7.84765 16.1137 7.84765 16.1137 7.08488 15.3755C6.25674 14.574 6.26763 14.5846 5.45038 15.4072C5.24335 15.6075 5.19976 15.7341 5.42859 15.9556C6.15867 16.641 6.86695 17.3371 7.58613 18.0331C7.6733 18.0964 7.74958 18.1596 7.82586 18.2229Z" fill="#9AC34F"/>
<path d="M10.0389 0C10.0716 0.073821 10.137 0.0949128 10.2024 0.105459C12.7195 0.548385 14.0925 2.10917 14.6918 4.41872C14.986 5.58931 14.8552 6.79154 14.877 7.98322C14.877 8.20468 14.779 8.29959 14.5501 8.29959C13.9181 8.29959 13.2752 8.28905 12.6432 8.29959C12.3163 8.31014 12.3272 8.10977 12.3163 7.88831C12.2836 6.90754 12.4035 5.91623 12.24 4.94601C11.9894 3.50123 11.0305 2.64701 9.51588 2.53101C9.40691 2.52046 9.29795 2.50992 9.18898 2.50992C6.68275 2.40446 5.47322 3.52232 5.46232 5.94787C5.46232 6.60171 5.45142 7.24501 5.46232 7.89885C5.46232 8.17304 5.40784 8.32069 5.08094 8.31014C4.48162 8.28905 3.8823 8.29959 3.28298 8.31014C3.08684 8.31014 2.9016 8.28905 2.9016 8.04649C2.9016 6.47516 2.77084 4.88273 3.42464 3.37468C4.16562 1.69788 5.37515 0.601114 7.21668 0.17928C7.35834 0.147642 7.55448 0.17928 7.64165 0C8.44801 0 9.24346 0 10.0389 0Z" fill="#9AC34F"/>
<path d="M30.1365 12.2411L29.9912 13.0604C29.9763 13.1194 29.9503 13.1674 29.913 13.2043C29.8758 13.2412 29.8273 13.2597 29.7677 13.2597H29.7454C29.3804 13.2228 29.0265 13.1969 28.6838 13.1822C28.3486 13.16 27.9724 13.1489 27.5552 13.1489C27.3988 13.1489 27.2424 13.1637 27.0859 13.1932C26.9295 13.2154 26.7879 13.2633 26.6613 13.3372C26.5347 13.4036 26.4304 13.4995 26.3484 13.625C26.2739 13.7431 26.2367 13.8944 26.2367 14.079C26.2367 14.2266 26.2888 14.3631 26.3931 14.4886C26.5049 14.6067 26.7023 14.7506 26.9854 14.9204L28.1922 15.6622C28.6466 15.9427 28.9557 16.249 29.1196 16.5811C29.291 16.9133 29.3766 17.2381 29.3766 17.5554C29.3766 18.0426 29.2873 18.4559 29.1085 18.7955C28.9297 19.135 28.6838 19.4118 28.371 19.6258C28.0655 19.8399 27.708 19.9949 27.2982 20.0908C26.896 20.1868 26.4639 20.2348 26.002 20.2348C25.5774 20.2348 25.2124 20.2163 24.9069 20.1794C24.6015 20.1425 24.3184 20.0945 24.0577 20.0355C24.013 20.0207 23.972 19.9986 23.9348 19.9691C23.8975 19.9395 23.8789 19.8989 23.8789 19.8473V19.8141L24.0242 19.0169C24.0391 18.9578 24.0689 18.9099 24.1136 18.873C24.1583 18.8287 24.2104 18.8065 24.27 18.8065H24.2924C24.4041 18.8213 24.5494 18.8361 24.7282 18.8508C24.9069 18.8582 25.0932 18.8693 25.2869 18.884C25.4806 18.8914 25.6631 18.8988 25.8344 18.9062C26.0132 18.9136 26.1547 18.9173 26.259 18.9173C26.4527 18.9173 26.639 18.8988 26.8177 18.8619C26.9965 18.825 27.153 18.7622 27.2871 18.6737C27.4211 18.5851 27.5292 18.467 27.6111 18.3194C27.6931 18.1718 27.734 17.9872 27.734 17.7658C27.734 17.6182 27.6782 17.4743 27.5664 17.334C27.4621 17.1938 27.2647 17.0277 26.9742 16.8358L25.6556 15.9611C25.4694 15.8357 25.3129 15.6991 25.1863 15.5515C25.0597 15.3965 24.9554 15.2415 24.8734 15.0865C24.7989 14.9241 24.7468 14.7654 24.717 14.6104C24.6872 14.448 24.6723 14.3004 24.6723 14.1675C24.6723 13.7025 24.7617 13.3187 24.9405 13.0161C25.1267 12.7135 25.3688 12.4773 25.6668 12.3075C25.9648 12.1304 26.3037 12.0086 26.6836 11.9421C27.071 11.8683 27.4621 11.8314 27.8569 11.8314C28.0432 11.8314 28.2406 11.8388 28.4492 11.8536C28.6578 11.8609 28.8589 11.8757 29.0526 11.8978C29.2463 11.92 29.4251 11.9421 29.589 11.9643C29.7528 11.9864 29.8795 12.0086 29.9689 12.0307C30.0136 12.0455 30.0508 12.0676 30.0806 12.0971C30.1179 12.1267 30.1365 12.1636 30.1365 12.2079V12.2411Z" fill="white"/>
<path d="M36.5093 12.2411L36.3641 13.0604C36.3492 13.1194 36.3231 13.1674 36.2858 13.2043C36.2486 13.2412 36.2002 13.2597 36.1406 13.2597H36.1182C35.7532 13.2228 35.3993 13.1969 35.0567 13.1822C34.7214 13.16 34.3452 13.1489 33.9281 13.1489C33.7716 13.1489 33.6152 13.1637 33.4587 13.1932C33.3023 13.2154 33.1608 13.2633 33.0341 13.3372C32.9075 13.4036 32.8032 13.4995 32.7212 13.625C32.6467 13.7431 32.6095 13.8944 32.6095 14.079C32.6095 14.2266 32.6616 14.3631 32.7659 14.4886C32.8777 14.6067 33.0751 14.7506 33.3582 14.9204L34.565 15.6622C35.0194 15.9427 35.3286 16.249 35.4925 16.5811C35.6638 16.9133 35.7495 17.2381 35.7495 17.5554C35.7495 18.0426 35.6601 18.4559 35.4813 18.7955C35.3025 19.135 35.0567 19.4118 34.7438 19.6258C34.4384 19.8399 34.0808 19.9949 33.6711 20.0908C33.2688 20.1868 32.8367 20.2348 32.3748 20.2348C31.9502 20.2348 31.5852 20.2163 31.2798 20.1794C30.9743 20.1425 30.6913 20.0945 30.4305 20.0355C30.3858 20.0207 30.3448 19.9986 30.3076 19.9691C30.2704 19.9395 30.2517 19.8989 30.2517 19.8473V19.8141L30.397 19.0169C30.4119 18.9578 30.4417 18.9099 30.4864 18.873C30.5311 18.8287 30.5832 18.8065 30.6428 18.8065H30.6652C30.7769 18.8213 30.9222 18.8361 31.101 18.8508C31.2798 18.8582 31.466 18.8693 31.6597 18.884C31.8534 18.8914 32.0359 18.8988 32.2072 18.9062C32.386 18.9136 32.5276 18.9173 32.6318 18.9173C32.8255 18.9173 33.0118 18.8988 33.1906 18.8619C33.3694 18.825 33.5258 18.7622 33.6599 18.6737C33.794 18.5851 33.902 18.467 33.9839 18.3194C34.0659 18.1718 34.1069 17.9872 34.1069 17.7658C34.1069 17.6182 34.051 17.4743 33.9392 17.334C33.8349 17.1938 33.6375 17.0277 33.347 16.8358L32.0284 15.9611C31.8422 15.8357 31.6858 15.6991 31.5591 15.5515C31.4325 15.3965 31.3282 15.2415 31.2462 15.0865C31.1717 14.9241 31.1196 14.7654 31.0898 14.6104C31.06 14.448 31.0451 14.3004 31.0451 14.1675C31.0451 13.7025 31.1345 13.3187 31.3133 13.0161C31.4995 12.7135 31.7416 12.4773 32.0396 12.3075C32.3376 12.1304 32.6765 12.0086 33.0565 11.9421C33.4438 11.8683 33.8349 11.8314 34.2298 11.8314C34.416 11.8314 34.6134 11.8388 34.822 11.8536C35.0306 11.8609 35.2317 11.8757 35.4254 11.8978C35.6191 11.92 35.7979 11.9421 35.9618 11.9643C36.1257 11.9864 36.2523 12.0086 36.3417 12.0307C36.3864 12.0455 36.4236 12.0676 36.4534 12.0971C36.4907 12.1267 36.5093 12.1636 36.5093 12.2079V12.2411Z" fill="white"/>
<path d="M41.5524 19.1387L41.4295 19.8473C41.4146 19.9285 41.3848 19.9838 41.3401 20.0133C41.3028 20.0429 41.2433 20.065 41.1613 20.0798C41.0719 20.1019 40.949 20.1241 40.7926 20.1462C40.6436 20.161 40.476 20.1757 40.2897 20.1905C40.1109 20.2052 39.9284 20.2163 39.7422 20.2237C39.5559 20.2311 39.3883 20.2348 39.2393 20.2348C38.9935 20.2348 38.7365 20.2089 38.4683 20.1573C38.2076 20.113 37.9692 20.0244 37.7532 19.8916C37.5446 19.7587 37.3695 19.5815 37.228 19.3601C37.0939 19.1313 37.0268 18.8398 37.0268 18.4855C37.0268 18.4043 37.0268 18.3231 37.0268 18.2419C37.0343 18.1533 37.0455 18.061 37.0604 17.9651L38.0884 12.1414C38.1033 12.0824 38.1368 12.0307 38.189 11.9864C38.2411 11.9421 38.297 11.92 38.3566 11.92H39.4628C39.582 11.92 39.6416 11.979 39.6416 12.0971V12.1414L38.6136 17.9651C38.5912 18.1053 38.5801 18.2308 38.5801 18.3415C38.5801 18.5556 38.6359 18.7069 38.7477 18.7955C38.8669 18.8767 39.0568 18.9173 39.3176 18.9173H41.3736C41.4928 18.9173 41.5524 18.9763 41.5524 19.0944V19.1387Z" fill="white"/>
<path d="M51.6339 12.2411L51.4886 13.0604C51.4737 13.1194 51.4476 13.1674 51.4104 13.2043C51.3731 13.2412 51.3247 13.2597 51.2651 13.2597H51.2428C50.8777 13.2228 50.5239 13.1969 50.1812 13.1822C49.846 13.16 49.4698 13.1489 49.0526 13.1489C48.8962 13.1489 48.7397 13.1637 48.5833 13.1932C48.4268 13.2154 48.2853 13.2633 48.1587 13.3372C48.032 13.4036 47.9277 13.4995 47.8458 13.625C47.7713 13.7431 47.734 13.8944 47.734 14.079C47.734 14.2266 47.7862 14.3631 47.8905 14.4886C48.0022 14.6067 48.1996 14.7506 48.4827 14.9204L49.6895 15.6622C50.144 15.9427 50.4531 16.249 50.617 16.5811C50.7883 16.9133 50.874 17.2381 50.874 17.5554C50.874 18.0426 50.7846 18.4559 50.6058 18.7955C50.427 19.135 50.1812 19.4118 49.8683 19.6258C49.5629 19.8399 49.2053 19.9949 48.7956 20.0908C48.3933 20.1868 47.9613 20.2348 47.4994 20.2348C47.0748 20.2348 46.7097 20.2163 46.4043 20.1794C46.0989 20.1425 45.8158 20.0945 45.5551 20.0355C45.5104 20.0207 45.4694 19.9986 45.4321 19.9691C45.3949 19.9395 45.3763 19.8989 45.3763 19.8473V19.8141L45.5215 19.0169C45.5364 18.9578 45.5662 18.9099 45.6109 18.873C45.6556 18.8287 45.7078 18.8065 45.7674 18.8065H45.7897C45.9015 18.8213 46.0467 18.8361 46.2255 18.8508C46.4043 18.8582 46.5905 18.8693 46.7842 18.884C46.9779 18.8914 47.1604 18.8988 47.3318 18.9062C47.5106 18.9136 47.6521 18.9173 47.7564 18.9173C47.9501 18.9173 48.1363 18.8988 48.3151 18.8619C48.4939 18.825 48.6503 18.7622 48.7844 18.6737C48.9185 18.5851 49.0265 18.467 49.1085 18.3194C49.1904 18.1718 49.2314 17.9872 49.2314 17.7658C49.2314 17.6182 49.1755 17.4743 49.0638 17.334C48.9595 17.1938 48.7621 17.0277 48.4715 16.8358L47.153 15.9611C46.9667 15.8357 46.8103 15.6991 46.6837 15.5515C46.557 15.3965 46.4527 15.2415 46.3708 15.0865C46.2963 14.9241 46.2441 14.7654 46.2143 14.6104C46.1845 14.448 46.1696 14.3004 46.1696 14.1675C46.1696 13.7025 46.259 13.3187 46.4378 13.0161C46.6241 12.7135 46.8662 12.4773 47.1642 12.3075C47.4621 12.1304 47.8011 12.0086 48.181 11.9421C48.5684 11.8683 48.9595 11.8314 49.3543 11.8314C49.5406 11.8314 49.738 11.8388 49.9465 11.8536C50.1551 11.8609 50.3563 11.8757 50.55 11.8978C50.7436 11.92 50.9224 11.9421 51.0863 11.9643C51.2502 11.9864 51.3769 12.0086 51.4663 12.0307C51.5109 12.0455 51.5482 12.0676 51.578 12.0971C51.6152 12.1267 51.6339 12.1636 51.6339 12.2079V12.2411Z" fill="white"/>
<path d="M57.4927 16.094C57.4927 16.1973 57.4852 16.3044 57.4703 16.4151C57.4629 16.5184 57.4517 16.6217 57.4368 16.7251L57.3474 17.2565C57.3102 17.441 57.2208 17.5333 57.0792 17.5333H53.4364C53.4215 17.6145 53.4066 17.692 53.3917 17.7658C53.3843 17.8322 53.3805 17.906 53.3805 17.9872C53.3805 18.2899 53.4662 18.5334 53.6375 18.718C53.8089 18.8951 54.1031 18.9837 54.5203 18.9837C54.93 18.9837 55.3174 18.9689 55.6824 18.9394C56.0475 18.9099 56.3492 18.884 56.5876 18.8619H56.6323C56.677 18.8619 56.7142 18.8693 56.744 18.884C56.7812 18.8988 56.7999 18.932 56.7999 18.9837V19.028L56.6658 19.7587C56.6509 19.8473 56.6248 19.9137 56.5876 19.958C56.5578 20.0023 56.4907 20.0318 56.3864 20.0466C56.2002 20.0761 56.0251 20.1056 55.8612 20.1351C55.6973 20.1573 55.5297 20.1757 55.3584 20.1905C55.187 20.2052 55.0045 20.2163 54.8108 20.2237C54.6172 20.2311 54.3937 20.2348 54.1404 20.2348C53.8946 20.2348 53.6413 20.1979 53.3805 20.1241C53.1198 20.0502 52.8814 19.9285 52.6654 19.7587C52.4568 19.5815 52.2817 19.3527 52.1402 19.0723C52.0061 18.7844 51.9391 18.4301 51.9391 18.0094C51.9391 17.906 51.9428 17.799 51.9502 17.6883C51.9577 17.5776 51.9726 17.4632 51.9949 17.3451L52.1178 16.6586C52.2072 16.142 52.3451 15.7028 52.5313 15.3411C52.7175 14.9794 52.9447 14.6879 53.2129 14.4665C53.4811 14.2376 53.7903 14.0753 54.1404 13.9793C54.4905 13.876 54.8779 13.8243 55.3025 13.8243C55.675 13.8243 55.999 13.8834 56.2747 14.0015C56.5503 14.1122 56.7775 14.2709 56.9563 14.4775C57.1351 14.6768 57.2692 14.9167 57.3586 15.1972C57.448 15.4703 57.4927 15.7692 57.4927 16.094ZM56.04 16.0718C56.04 15.7471 55.9581 15.5035 55.7942 15.3411C55.6303 15.1714 55.3919 15.0865 55.079 15.0865C54.6321 15.0865 54.2968 15.2193 54.0733 15.4851C53.8499 15.7508 53.7009 16.0866 53.6264 16.4926H55.9953C56.0102 16.4188 56.0214 16.3486 56.0288 16.2822C56.0363 16.2158 56.04 16.1457 56.04 16.0718Z" fill="white"/>
<path d="M63.2163 14.1565C63.2163 14.1712 63.2163 14.1897 63.2163 14.2118C63.2163 14.2266 63.2126 14.2413 63.2052 14.2561L63.0711 14.9758C63.0562 15.0348 63.0264 15.0791 62.9817 15.1086C62.9444 15.1308 62.8997 15.1418 62.8476 15.1418H62.8141C62.6353 15.1197 62.4416 15.1012 62.233 15.0865C62.0319 15.0717 61.7488 15.0643 61.3838 15.0643C61.2497 15.0643 61.1156 15.0865 60.9815 15.1308C60.8474 15.175 60.7208 15.2525 60.6016 15.3633C60.4824 15.4666 60.3744 15.6142 60.2775 15.8061C60.1807 15.9907 60.1062 16.2268 60.054 16.5147L59.8641 17.5444C59.8417 17.6477 59.8268 17.7474 59.8194 17.8433C59.8119 17.9319 59.8082 18.0168 59.8082 18.098C59.8082 18.2825 59.8305 18.4338 59.8752 18.5519C59.9274 18.67 59.9907 18.7622 60.0652 18.8287C60.1471 18.8951 60.2403 18.9394 60.3446 18.9615C60.4563 18.9837 60.568 18.9948 60.6798 18.9948C60.8586 18.9948 61.015 18.9948 61.1491 18.9948C61.2906 18.9874 61.4173 18.98 61.529 18.9726C61.6408 18.9652 61.7451 18.9578 61.8419 18.9505C61.9462 18.9357 62.0468 18.9246 62.1436 18.9173H62.1771C62.2218 18.9173 62.2591 18.9283 62.2889 18.9505C62.3261 18.9726 62.3447 19.0058 62.3447 19.0501V19.0833L62.2107 19.803C62.1958 19.8916 62.1697 19.958 62.1324 20.0023C62.1026 20.0392 62.0356 20.0687 61.9313 20.0908C61.7972 20.1277 61.6035 20.161 61.3502 20.1905C61.1044 20.22 60.8102 20.2348 60.4675 20.2348C60.1471 20.2348 59.8566 20.1831 59.5959 20.0798C59.3351 19.9764 59.1117 19.8325 58.9254 19.648C58.7392 19.4561 58.5939 19.2309 58.4896 18.9726C58.3853 18.7143 58.3332 18.4264 58.3332 18.109C58.3332 18.0205 58.3369 17.9319 58.3444 17.8433C58.3593 17.7474 58.3742 17.6477 58.3891 17.5444L58.579 16.5147C58.6759 15.9907 58.8211 15.5552 59.0148 15.2083C59.2085 14.8614 59.4357 14.5883 59.6964 14.389C59.9572 14.1823 60.2477 14.0384 60.568 13.9572C60.8958 13.8686 61.2422 13.8243 61.6072 13.8243C61.9499 13.8243 62.2367 13.8391 62.4677 13.8686C62.7061 13.8981 62.8886 13.9313 63.0152 13.9682C63.1493 13.9978 63.2163 14.0605 63.2163 14.1565Z" fill="white"/>
<path d="M69.5496 14.1343L68.5216 19.9248C68.5067 19.9838 68.4732 20.0355 68.421 20.0798C68.3763 20.1241 68.3242 20.1462 68.2646 20.1462H67.3036C67.244 20.1462 67.1956 20.1277 67.1583 20.0908C67.1285 20.0539 67.1136 20.006 67.1136 19.9469V19.9248L67.1472 19.6923C66.8715 19.8473 66.581 19.9801 66.2756 20.0908C65.9776 20.1942 65.6721 20.2458 65.3593 20.2458C65.1432 20.2458 64.9309 20.2163 64.7223 20.1573C64.5212 20.0982 64.3424 20.0023 64.186 19.8694C64.0295 19.7366 63.9029 19.5631 63.806 19.349C63.7167 19.135 63.672 18.873 63.672 18.563C63.672 18.4375 63.6757 18.3083 63.6831 18.1755C63.698 18.0352 63.7204 17.8913 63.7502 17.7437L64.3871 14.1343C64.402 14.0753 64.4355 14.0236 64.4877 13.9793C64.5398 13.9276 64.5957 13.9018 64.6553 13.9018H65.6833C65.8025 13.9018 65.8621 13.9646 65.8621 14.09V14.1343L65.2252 17.7437C65.2028 17.8839 65.1842 18.0094 65.1693 18.1201C65.1544 18.2234 65.147 18.3194 65.147 18.408C65.147 18.6442 65.1954 18.7992 65.2922 18.873C65.3891 18.9468 65.5679 18.9837 65.8286 18.9837C65.9552 18.9837 66.0893 18.9689 66.2309 18.9394C66.3724 18.9099 66.5065 18.8767 66.6331 18.8398C66.7672 18.7955 66.8901 18.7512 67.0019 18.7069C67.1136 18.6626 67.2067 18.622 67.2812 18.5851L68.0746 14.1343C68.0895 14.0753 68.1193 14.0236 68.164 13.9793C68.2162 13.9276 68.272 13.9018 68.3316 13.9018H69.3597C69.4193 13.9018 69.464 13.9203 69.4937 13.9572C69.531 13.9941 69.5496 14.0384 69.5496 14.09V14.1343Z" fill="white"/>
<path d="M74.2629 14.0457L74.1176 14.8429C74.1027 14.9019 74.0692 14.9536 74.0171 14.9979C73.9724 15.0422 73.9202 15.0643 73.8606 15.0643C73.6818 15.0643 73.4621 15.0828 73.2013 15.1197C72.948 15.1566 72.6315 15.271 72.2515 15.4629L71.4581 19.9137C71.4433 19.9727 71.4097 20.0281 71.3576 20.0798C71.3054 20.1241 71.2496 20.1462 71.19 20.1462H70.1619C70.1023 20.1462 70.0576 20.1277 70.0278 20.0908C69.998 20.0539 69.9831 20.0097 69.9831 19.958V19.9137L71.0112 14.1232C71.0261 14.0642 71.0559 14.0125 71.1006 13.9682C71.1527 13.924 71.2086 13.9018 71.2682 13.9018H72.2403C72.367 13.9018 72.4303 13.9646 72.4303 14.09V14.1232L72.3856 14.3557C72.7059 14.1122 73.0076 13.9646 73.2907 13.9129C73.5813 13.8538 73.8457 13.8243 74.0841 13.8243C74.2033 13.8243 74.2629 13.8834 74.2629 14.0015V14.0457Z" fill="white"/>
<path d="M79.9394 16.094C79.9394 16.1973 79.932 16.3044 79.9171 16.4151C79.9096 16.5184 79.8984 16.6217 79.8835 16.7251L79.7942 17.2565C79.7569 17.441 79.6675 17.5333 79.526 17.5333H75.8832C75.8683 17.6145 75.8534 17.692 75.8385 17.7658C75.831 17.8322 75.8273 17.906 75.8273 17.9872C75.8273 18.2899 75.913 18.5334 76.0843 18.718C76.2556 18.8951 76.5499 18.9837 76.9671 18.9837C77.3768 18.9837 77.7642 18.9689 78.1292 18.9394C78.4942 18.9099 78.7959 18.884 79.0343 18.8619H79.079C79.1237 18.8619 79.1609 18.8693 79.1907 18.884C79.228 18.8988 79.2466 18.932 79.2466 18.9837V19.028L79.1125 19.7587C79.0976 19.8473 79.0715 19.9137 79.0343 19.958C79.0045 20.0023 78.9375 20.0318 78.8332 20.0466C78.6469 20.0761 78.4719 20.1056 78.308 20.1351C78.1441 20.1573 77.9765 20.1757 77.8051 20.1905C77.6338 20.2052 77.4513 20.2163 77.2576 20.2237C77.0639 20.2311 76.8404 20.2348 76.5871 20.2348C76.3413 20.2348 76.088 20.1979 75.8273 20.1241C75.5666 20.0502 75.3282 19.9285 75.1121 19.7587C74.9035 19.5815 74.7285 19.3527 74.5869 19.0723C74.4529 18.7844 74.3858 18.4301 74.3858 18.0094C74.3858 17.906 74.3895 17.799 74.397 17.6883C74.4044 17.5776 74.4193 17.4632 74.4417 17.3451L74.5646 16.6586C74.654 16.142 74.7918 15.7028 74.978 15.3411C75.1643 14.9794 75.3915 14.6879 75.6597 14.4665C75.9279 14.2376 76.237 14.0753 76.5871 13.9793C76.9373 13.876 77.3246 13.8243 77.7493 13.8243C78.1217 13.8243 78.4458 13.8834 78.7214 14.0015C78.9971 14.1122 79.2243 14.2709 79.4031 14.4775C79.5818 14.6768 79.7159 14.9167 79.8053 15.1972C79.8947 15.4703 79.9394 15.7692 79.9394 16.094ZM78.4868 16.0718C78.4868 15.7471 78.4048 15.5035 78.2409 15.3411C78.077 15.1714 77.8387 15.0865 77.5258 15.0865C77.0788 15.0865 76.7436 15.2193 76.5201 15.4851C76.2966 15.7508 76.1476 16.0866 76.0731 16.4926H78.4421C78.457 16.4188 78.4681 16.3486 78.4756 16.2822C78.483 16.2158 78.4868 16.1457 78.4868 16.0718Z" fill="white"/>
<path d="M87.004 11.9421L85.6296 19.648C85.6147 19.7292 85.5849 19.7919 85.5402 19.8362C85.4955 19.8731 85.4061 19.91 85.272 19.9469C84.907 20.0355 84.5233 20.1056 84.121 20.1573C83.7188 20.2089 83.3388 20.2348 82.9813 20.2348C82.5939 20.2348 82.2587 20.1794 81.9756 20.0687C81.6925 19.958 81.4578 19.8067 81.2716 19.6148C81.0928 19.4155 80.9587 19.183 80.8693 18.9173C80.7874 18.6515 80.7464 18.3674 80.7464 18.0647C80.7464 17.9614 80.7501 17.8618 80.7576 17.7658C80.7725 17.6625 80.7874 17.5591 80.8023 17.4558L80.9475 16.6033C81.0295 16.1014 81.1561 15.677 81.3275 15.33C81.5063 14.9758 81.726 14.6879 81.9868 14.4665C82.2475 14.245 82.5566 14.0826 82.9142 13.9793C83.2718 13.876 83.6741 13.8243 84.121 13.8243C84.2551 13.8243 84.4116 13.8317 84.5904 13.8465C84.7766 13.8538 84.9703 13.8723 85.1714 13.9018L85.529 11.9421C85.5439 11.8831 85.5737 11.8314 85.6184 11.7871C85.6705 11.7428 85.7264 11.7207 85.786 11.7207H86.814C86.9407 11.7207 87.004 11.7834 87.004 11.9089V11.9421ZM84.9591 15.0975C84.8101 15.0754 84.6313 15.0569 84.4227 15.0422C84.2142 15.0274 84.0428 15.02 83.9087 15.02C83.6703 15.02 83.4655 15.0533 83.2941 15.1197C83.1302 15.1787 82.9887 15.2747 82.8695 15.4076C82.7578 15.5404 82.6647 15.7065 82.5902 15.9058C82.5231 16.1051 82.4672 16.3376 82.4226 16.6033L82.2773 17.4558C82.2326 17.7215 82.2102 17.9503 82.2102 18.1422C82.2102 18.4522 82.281 18.6811 82.4226 18.8287C82.5715 18.9689 82.8285 19.039 83.1936 19.039C83.3947 19.039 83.5958 19.0317 83.797 19.0169C84.0056 19.0021 84.1657 18.9837 84.2775 18.9615L84.9591 15.0975Z" fill="white"/>
</svg>
