<svg width="101" height="100" viewBox="0 0 101 100" fill="none" xmlns="http://www.w3.org/2000/svg">
<path d="M93.3346 10C89.658 10 86.668 12.99 86.668 16.6667C86.668 16.9458 86.7136 17.2238 86.7498 17.5023L73.6978 22.7279C72.474 21.0385 70.5151 20 68.3346 20C64.658 20 61.668 22.99 61.668 26.6667C61.668 27.7246 61.9401 28.7377 62.4001 29.646L45.4044 44.5144C44.3153 43.7656 43.024 43.3333 41.668 43.3333C39.7626 43.3333 37.9936 44.1437 36.749 45.514L19.8163 36.5417C19.9373 36.0385 20.0013 35.524 20.0013 35C20.0013 31.3233 17.0113 28.3333 13.3346 28.3333C9.65797 28.3333 6.66797 31.3233 6.66797 35C6.66797 38.6767 9.65797 41.6667 13.3346 41.6667C15.2401 41.6667 17.009 40.8563 18.2536 39.486L35.1863 48.4583C35.0651 48.9617 35.0013 49.4763 35.0013 50C35.0013 53.6767 37.9913 56.6667 41.668 56.6667C45.3446 56.6667 48.3346 53.6767 48.3346 50C48.3346 48.9421 48.0626 47.929 47.6026 47.0206L64.598 32.1523C65.6873 32.901 66.9786 33.3333 68.3346 33.3333C72.0113 33.3333 75.0013 30.3433 75.0013 26.6667C75.0013 26.3875 74.9557 26.1096 74.9194 25.831L87.9715 20.6054C89.1955 22.2948 91.1542 23.3333 93.3346 23.3333C97.0113 23.3333 100.001 20.3433 100.001 16.6667C100.001 12.99 97.0113 10 93.3346 10ZM16.2773 36.5577C15.6996 37.6529 14.5732 38.3333 13.3346 38.3333C11.4971 38.3333 10.0013 36.8375 10.0013 35C10.0013 33.1625 11.4971 31.6667 13.3346 31.6667C15.1721 31.6667 16.668 33.1625 16.668 35C16.668 35.5388 16.5361 36.0629 16.2773 36.5577ZM41.668 53.3333C39.8305 53.3333 38.3346 51.8375 38.3346 50C38.3346 49.4613 38.4665 48.9371 38.7253 48.4423C39.303 47.3469 40.4294 46.6667 41.668 46.6667C42.6282 46.6667 43.5348 47.08 44.1811 47.8352C44.7101 48.4196 45.0013 49.1879 45.0013 50C45.0013 51.8375 43.5055 53.3333 41.668 53.3333ZM68.3346 30C67.3744 30 66.4678 29.5867 65.8215 28.8315C65.2926 28.2471 65.0013 27.4788 65.0013 26.6667C65.0013 24.8292 66.4971 23.3333 68.3346 23.3333C69.7132 23.3333 70.9226 24.1521 71.4255 25.4475C71.5851 25.8333 71.668 26.2548 71.668 26.6667C71.668 28.5042 70.1721 30 68.3346 30ZM93.3346 20C91.9561 20 90.7467 19.1812 90.2438 17.8858C90.0842 17.5 90.0013 17.0785 90.0013 16.6667C90.0013 14.8292 91.4971 13.3333 93.3346 13.3333C95.1721 13.3333 96.668 14.8292 96.668 16.6667C96.668 18.5042 95.1721 20 93.3346 20Z" fill="#D09E70"/>
<path d="M3.33333 96.6667V0H0V98.3333C0 99.2546 0.745417 100 1.66667 100H100V96.6667H3.33333Z" fill="#D09E70"/>
<path d="M15.0013 66.666H8.33464C7.41339 66.666 6.66797 67.4114 6.66797 68.3327V91.666C6.66797 92.5873 7.41339 93.3327 8.33464 93.3327H15.0013C15.9226 93.3327 16.668 92.5873 16.668 91.666V68.3327C16.668 67.4114 15.9226 66.666 15.0013 66.666ZM13.3346 89.9993H10.0013V69.9993H13.3346V89.9993Z" fill="#D09E70"/>
<path d="M45.0013 76.666H38.3346C37.4134 76.666 36.668 77.4114 36.668 78.3327V91.666C36.668 92.5873 37.4134 93.3327 38.3346 93.3327H45.0013C45.9226 93.3327 46.668 92.5873 46.668 91.666V78.3327C46.668 77.4114 45.9226 76.666 45.0013 76.666ZM43.3346 89.9993H40.0013V79.9993H43.3346V89.9993Z" fill="#D09E70"/>
<path d="M71.6654 53.334H64.9987C64.0774 53.334 63.332 54.0794 63.332 55.0007V91.6673C63.332 92.5886 64.0774 93.334 64.9987 93.334H71.6654C72.5866 93.334 73.332 92.5886 73.332 91.6673V55.0007C73.332 54.0794 72.5866 53.334 71.6654 53.334ZM69.9987 90.0006H66.6654V56.6673H69.9987V90.0006Z" fill="#D09E70"/>
<path d="M98.3333 43.334H91.6667C90.7454 43.334 90 44.0794 90 45.0007V91.6673C90 92.5886 90.7454 93.334 91.6667 93.334H98.3333C99.2546 93.334 100 92.5886 100 91.6673V45.0007C100 44.0794 99.2546 43.334 98.3333 43.334ZM96.6667 90.0006H93.3333V46.6673H96.6667V90.0006Z" fill="#D09E70"/>
<path d="M18.3346 3.33398H8.33464C7.41339 3.33398 6.66797 4.0794 6.66797 5.00065V11.6673C6.66797 12.5886 7.41339 13.334 8.33464 13.334H18.3346C19.2559 13.334 20.0013 12.5886 20.0013 11.6673V5.00065C20.0013 4.0794 19.2559 3.33398 18.3346 3.33398ZM16.668 10.0007H10.0013V6.66732H16.668V10.0007Z" fill="#D09E70"/>
<path d="M39.9987 3.33398H23.332V6.66732H39.9987V3.33398Z" fill="#D09E70"/>
<path d="M33.332 10H23.332V13.3333H33.332V10Z" fill="#D09E70"/>
<path d="M79.9987 3.33398H63.332V6.66732H79.9987V3.33398Z" fill="#D09E70"/>
<path d="M73.332 10H63.332V13.3333H73.332V10Z" fill="#D09E70"/>
<path d="M53.3346 1.66602C49.658 1.66602 46.668 4.65602 46.668 8.33268C46.668 12.0093 49.658 14.9993 53.3346 14.9993C57.0113 14.9993 60.0013 12.0093 60.0013 8.33268C60.0013 4.65602 57.0113 1.66602 53.3346 1.66602ZM53.3346 11.666C51.4971 11.666 50.0013 10.1702 50.0013 8.33268C50.0013 6.49518 51.4971 4.99935 53.3346 4.99935C55.1721 4.99935 56.668 6.49518 56.668 8.33268C56.668 10.1702 55.1721 11.666 53.3346 11.666Z" fill="#D09E70"/>
</svg>
