<svg width="50" height="48" viewBox="0 0 50 48" fill="none" xmlns="http://www.w3.org/2000/svg">
<path d="M20.8446 3.20239C11.1832 3.20239 3.35119 10.7236 3.35119 20.0016C3.35119 29.2796 11.1832 36.8009 20.8446 36.8009C30.5059 36.8009 38.3379 29.2796 38.3379 20.0016C38.3274 10.7278 30.5015 3.21249 20.8446 3.20239ZM20.8446 4.80232C25.9901 4.80622 30.8119 7.21451 33.7697 11.258L31.6871 13.2579C31.1803 12.9634 30.6001 12.8059 30.0078 12.802C28.1675 12.802 26.6757 14.2346 26.6757 16.0018C26.6786 16.5713 26.8418 17.1294 27.148 17.6169L21.6934 22.8551C20.6606 22.2503 19.3625 22.2503 18.3297 22.8551L14.5411 19.2169C14.8474 18.7293 15.0105 18.1712 15.0134 17.6017C15.0157 15.838 13.5288 14.4065 11.6922 14.4043C10.1733 14.4025 8.84619 15.3891 8.46759 16.8018H5.37709C6.9543 9.80739 13.3924 4.81282 20.8446 4.80232ZM31.6738 16.0018C31.6738 16.8855 30.9279 17.6017 30.0078 17.6017C29.0876 17.6017 28.3417 16.8855 28.3417 16.0018C28.3417 15.1181 29.0876 14.4019 30.0078 14.4019C30.9279 14.4019 31.6738 15.1181 31.6738 16.0018ZM21.6776 25.6014C21.6776 26.485 20.9317 27.2013 20.0115 27.2013C19.0914 27.2013 18.3455 26.485 18.3455 25.6014C18.3455 24.7177 19.0914 24.0014 20.0115 24.0014C20.9317 24.0014 21.6776 24.7177 21.6776 25.6014ZM13.3474 17.6017C13.3474 18.4854 12.6015 19.2017 11.6814 19.2017C10.7612 19.2017 10.0153 18.4854 10.0153 17.6017C10.0153 16.7181 10.7612 16.0018 11.6814 16.0018C12.6015 16.0018 13.3474 16.7181 13.3474 17.6017ZM28.5348 33.2916C26.1823 34.546 23.5354 35.2031 20.8446 35.2008C12.1093 35.2065 5.02316 28.4109 5.01723 20.0223C5.01681 19.4809 5.04659 18.9399 5.10636 18.4016H8.46759C8.8463 19.81 10.1666 20.796 11.6814 20.8015C12.2744 20.7987 12.8555 20.642 13.3632 20.3479L17.1518 23.9861C16.8456 24.4737 16.6824 25.0318 16.6795 25.6013C16.6795 27.3685 18.1713 28.8011 20.0115 28.8011C21.8518 28.8011 23.3436 27.3685 23.3436 25.6013C23.3407 25.0318 23.1775 24.4737 22.8713 23.9861L28.3259 18.748C28.8336 19.0421 29.4148 19.1988 30.0078 19.2016C31.848 19.2016 33.3398 17.7689 33.3398 16.0017C33.3369 15.4322 33.1738 14.8742 32.8675 14.3866L34.6835 12.6435C38.923 19.9759 36.1701 29.2204 28.5348 33.2916Z" fill="#D09E70"/>
<path d="M41.6698 8.0022C43.1846 7.9967 44.5049 7.01085 44.8836 5.60231H50V4.00239H44.8836C44.5049 2.59385 43.1846 1.608 41.6698 1.6025C39.8296 1.6025 38.3377 3.03513 38.3377 4.80235C38.3407 5.37182 38.5038 5.9299 38.8101 6.41748L37.3465 7.82301C30.3434 -0.938688 17.27 -2.58961 8.14626 4.13558C-0.977474 10.8608 -2.69661 23.4155 4.30646 32.1772C10.9169 40.4475 23.0343 42.4537 32.1468 36.7865L42.5445 46.7716C44.25 48.4095 47.015 48.4095 48.7205 46.7716C50.426 45.1338 50.426 42.4785 48.7205 40.8407L38.3228 30.8556C42.7855 24.2543 42.7855 15.7491 38.3228 9.14775L39.9888 7.54782C40.4962 7.84201 41.0771 7.999 41.6698 8.0022ZM41.6698 3.20242C42.59 3.20242 43.3359 3.91869 43.3359 4.80235C43.3359 5.68601 42.59 6.40228 41.6698 6.40228C40.7496 6.40228 40.0038 5.68601 40.0038 4.80235C40.0038 3.91869 40.7498 3.20242 41.6698 3.20242ZM47.5426 41.9719C48.6095 42.9734 48.629 44.6159 47.586 45.6405C46.5431 46.665 44.8327 46.6837 43.7658 45.6822C43.7511 45.6685 43.7367 45.6546 43.7224 45.6405L37.0166 39.2008L40.8368 35.5321L47.5426 41.9719ZM39.6589 34.401L35.8387 38.0696L33.5329 35.8553C33.6504 35.7689 33.7603 35.6737 33.8761 35.5849C33.9919 35.4961 34.126 35.3898 34.2501 35.2898C34.4326 35.1426 34.6125 34.9938 34.7891 34.841C34.8799 34.761 34.9665 34.681 35.0557 34.601C35.3972 34.2938 35.7279 33.9762 36.0478 33.6482C36.1311 33.5626 36.2144 33.4794 36.2977 33.3922C36.4568 33.2227 36.6117 33.0499 36.765 32.8747C36.8694 32.7563 36.9719 32.6366 37.0724 32.5155C37.164 32.4051 37.2632 32.2995 37.3531 32.1867L39.6589 34.401ZM36.4285 30.6852C36.1661 31.0372 35.8953 31.3819 35.6096 31.7139C35.5263 31.8107 35.4372 31.9043 35.3514 31.9995C35.0965 32.2843 34.8332 32.5606 34.5617 32.8283C34.4434 32.9456 34.3231 33.0611 34.201 33.1747C33.9233 33.4354 33.6357 33.6882 33.338 33.933C33.2388 34.013 33.1414 34.1002 33.0406 34.181C32.6949 34.4554 32.3359 34.7154 31.9693 34.9674C23.3459 40.8836 11.361 38.9664 5.20029 30.6852C-0.960397 22.4039 1.03603 10.8946 9.65944 4.97834C18.2828 -0.937888 30.2678 0.979225 36.4285 9.26055C41.1955 15.6685 41.1955 24.2773 36.4285 30.6852Z" fill="#D09E70"/>
</svg>
