<svg width="50" height="51" viewBox="0 0 50 51" fill="none" xmlns="http://www.w3.org/2000/svg">
<path d="M40.832 29.5846C40.832 27.9762 39.5238 26.668 37.9154 26.668H12.082C10.4736 26.668 9.16536 27.9762 9.16536 29.5846C9.16536 31.1931 10.4736 32.5013 12.082 32.5013H14.0596C13.6897 33.9381 12.3819 35.0013 10.832 35.0013C8.07446 35.0013 5.83203 37.2437 5.83203 40.0013V45.0013C5.83203 47.7589 8.07446 50.0013 10.832 50.0013H39.1654C41.9229 50.0013 44.1654 47.7605 44.1654 45.0046V39.8813C44.1662 38.578 43.6588 37.352 42.7363 36.4303C41.8147 35.5079 40.5887 35.0013 39.2846 35.0013H39.1804C37.6228 35.0013 36.3105 33.9381 35.9378 32.5013H37.9154C39.5238 32.5013 40.832 31.1931 40.832 29.5846ZM34.9979 30.8363C34.5377 30.8363 34.1654 31.2098 34.1654 31.6696C34.1654 34.4264 36.4147 36.668 39.1804 36.668H39.2846C40.1436 36.668 40.9513 37.002 41.5588 37.6087C42.1654 38.2154 42.4987 39.0223 42.4987 39.8805V45.0037C42.4987 46.8405 41.0037 48.3346 39.1654 48.3346H10.832C8.99365 48.3346 7.4987 46.8397 7.4987 45.0013V40.0013C7.4987 38.1629 8.99365 36.668 10.832 36.668C13.5896 36.668 15.832 34.4255 15.832 31.668C15.832 31.207 15.4597 30.8346 14.9987 30.8346H12.082C11.3927 30.8346 10.832 30.2739 10.832 29.5846C10.832 28.8953 11.3927 28.3346 12.082 28.3346H37.9154C38.6047 28.3346 39.1654 28.8953 39.1654 29.5846C39.1654 30.2739 38.6047 30.8346 37.9146 30.8346L34.9979 30.8363Z" fill="#CB9C71"/>
<path d="M14.9987 38.334C12.7013 38.334 10.832 40.2033 10.832 42.5007C10.832 44.798 12.7013 46.6673 14.9987 46.6673C17.2961 46.6673 19.1654 44.798 19.1654 42.5007C19.1654 40.2033 17.2961 38.334 14.9987 38.334ZM14.9987 45.0007C13.6205 45.0007 12.4987 43.8788 12.4987 42.5007C12.4987 41.1225 13.6205 40.0007 14.9987 40.0007C16.3769 40.0007 17.4987 41.1225 17.4987 42.5007C17.4987 43.8788 16.3769 45.0007 14.9987 45.0007Z" fill="#CB9C71"/>
<path d="M24.9987 38.334C22.7013 38.334 20.832 40.2033 20.832 42.5007C20.832 44.798 22.7013 46.6673 24.9987 46.6673C27.2961 46.6673 29.1654 44.798 29.1654 42.5007C29.1654 40.2033 27.2961 38.334 24.9987 38.334ZM24.9987 45.0007C23.6205 45.0007 22.4987 43.8788 22.4987 42.5007C22.4987 41.1225 23.6205 40.0007 24.9987 40.0007C26.3769 40.0007 27.4987 41.1225 27.4987 42.5007C27.4987 43.8788 26.3769 45.0007 24.9987 45.0007Z" fill="#CB9C71"/>
<path d="M30.8359 42.5007C30.8359 44.798 32.7052 46.6673 35.0026 46.6673C37.3 46.6673 39.1693 44.798 39.1693 42.5007C39.1693 40.2033 37.3 38.334 35.0026 38.334C32.7052 38.334 30.8359 40.2033 30.8359 42.5007ZM35.0026 40.0007C36.3808 40.0007 37.5026 41.1225 37.5026 42.5007C37.5026 43.8788 36.3808 45.0007 35.0026 45.0007C33.6244 45.0007 32.5026 43.8788 32.5026 42.5007C32.5026 41.1225 33.6244 40.0007 35.0026 40.0007Z" fill="#CB9C71"/>
<path d="M49.1654 7.49935H46.0847L41.2947 4.30599C41.158 4.21525 40.996 4.16602 40.832 4.16602H36.6654C36.4436 4.16602 36.232 4.2535 36.0762 4.41016L34.3586 6.12769C33.0244 5.40177 31.538 4.99935 29.9987 4.99935C24.9446 4.99935 20.832 9.1119 20.832 14.166C20.832 19.2201 24.9446 23.3327 29.9987 23.3327C32.7611 23.3327 35.2978 22.116 37.043 19.9993H49.1654C49.6264 19.9993 49.9987 19.627 49.9987 19.166V8.33268C49.9987 7.87166 49.6264 7.49935 49.1654 7.49935ZM29.9987 21.666C25.863 21.666 22.4987 18.3018 22.4987 14.166C22.4987 10.0303 25.863 6.66602 29.9987 6.66602C31.4469 6.66602 32.8503 7.0778 34.0563 7.85864C35.596 8.84945 36.717 10.3619 37.2147 12.1209C37.3278 12.5152 37.4071 12.9201 37.4527 13.3327H35.7653C35.3588 10.5108 32.9312 8.33268 29.9987 8.33268C26.783 8.33268 24.1654 10.9503 24.1654 14.166C24.1654 17.3818 26.783 19.9993 29.9987 19.9993V18.3327C27.7013 18.3327 25.832 16.4634 25.832 14.166C25.832 11.8687 27.7013 9.99935 29.9987 9.99935C32.0588 9.99935 33.7621 11.5053 34.0954 13.4718C33.5538 13.6244 33.0521 13.9003 32.6427 14.3092C32.012 14.9403 31.6654 15.7778 31.6654 16.666C31.6654 16.8902 31.6894 17.1095 31.7313 17.3211C31.7455 17.3936 31.7736 17.4595 31.7927 17.5303C31.8293 17.667 31.8643 17.8037 31.9181 17.9319C31.951 18.012 31.997 18.0853 32.0352 18.1618C32.0914 18.2729 32.1447 18.3835 32.2118 18.4869C32.2619 18.5634 32.3221 18.6309 32.3787 18.7026C32.4511 18.7953 32.5211 18.8893 32.6021 18.9736C32.6672 19.0411 32.7388 19.0985 32.8088 19.1603C32.8954 19.236 32.9805 19.3125 33.0745 19.3792C33.1514 19.4333 33.2336 19.4785 33.3145 19.5269C33.4138 19.5859 33.5127 19.6437 33.6189 19.6917C33.7043 19.7312 33.7947 19.7617 33.8846 19.7935C33.9953 19.8325 34.1064 19.8704 34.2211 19.8984C34.3147 19.9208 34.4103 19.9351 34.5063 19.9493C34.5796 19.9603 34.6496 19.9827 34.7253 19.9884C33.4085 21.0695 31.7569 21.666 29.9987 21.666ZM39.108 13.3327C39.073 12.9437 39.0112 12.5612 38.9269 12.1844L39.1405 11.9879L40.487 13.3327H39.108ZM48.332 18.3327H34.9987C34.0795 18.3327 33.332 17.5852 33.332 16.666C33.332 16.2225 33.5054 15.8042 33.8211 15.4884C34.1369 15.1727 34.5552 14.9993 34.9987 14.9993H42.4987C42.8352 14.9993 43.1404 14.7967 43.2686 14.485C43.398 14.1733 43.3263 13.8153 43.0879 13.5768L39.7546 10.2435C39.4396 9.92692 38.9302 9.91756 38.6014 10.2195L38.3638 10.4376C37.7803 9.12695 36.8985 7.97013 35.7812 7.06193L37.0104 5.83268H40.5793L45.3694 9.02604C45.5061 9.11678 45.6681 9.16602 45.832 9.16602H48.332V18.3327Z" fill="#CB9C71"/>
<path d="M19.1667 17.5V0.833333C19.1667 0.372314 18.7944 0 18.3333 0H0V1.66667H12.5667C12.9342 4.2159 14.9508 6.2325 17.5 6.59993V11.7334C14.9508 12.1008 12.9342 14.1174 12.5667 16.6667H0V18.3333H18.3333C18.7944 18.3333 19.1667 17.961 19.1667 17.5ZM14.2509 1.66667H17.5V4.91577C15.87 4.58333 14.5833 3.29671 14.2509 1.66667ZM14.2509 16.6667C14.5833 15.0366 15.87 13.75 17.5 13.4176V16.6667H14.2509Z" fill="#CB9C71"/>
<path d="M5 9.16602C5 6.40845 2.75757 4.16602 0 4.16602V5.83268C1.83838 5.83268 3.33333 7.32764 3.33333 9.16602C3.33333 11.0044 1.83838 12.4993 0 12.4993V14.166C2.75757 14.166 5 11.9236 5 9.16602Z" fill="#CB9C71"/>
<path d="M17.5 20H19.1667V21.6667H17.5V20Z" fill="#CB9C71"/>
<path d="M14.168 20H15.8346V21.6667H14.168V20Z" fill="#CB9C71"/>
<path d="M14.168 23.334H15.8346V25.0007H14.168V23.334Z" fill="#CB9C71"/>
<path d="M10.832 20H12.4987V21.6667H10.832V20Z" fill="#CB9C71"/>
</svg>
