<svg width="60" height="60" viewBox="0 0 60 60" fill="none" xmlns="http://www.w3.org/2000/svg">
<path d="M40 36H47C47.6 36 48 35.6 48 35C48 34.4 47.6 34 47 34H40C39.4 34 39 34.4 39 35C39 35.6 39.4 36 40 36ZM40 40H47C47.6 40 48 39.6 48 39C48 38.4 47.6 38 47 38H40C39.4 38 39 38.4 39 39C39 39.6 39.4 40 40 40ZM40 44H47C47.6 44 48 43.6 48 43C48 42.4 47.6 42 47 42H40C39.4 42 39 42.4 39 43C39 43.6 39.4 44 40 44ZM40 48H47C47.6 48 48 47.6 48 47C48 46.4 47.6 46 47 46H40C39.4 46 39 46.4 39 47C39 47.6 39.4 48 40 48ZM16.8 26.1C16.3 27.1 16 28.5 16 30C16 33.5 17.6 36 19 36C20.4 36 22 33.5 22 30C22 26.5 20.4 24 19 24C18.2 24 17.3 24.8 16.8 26.1ZM14 29C14.1 27.9 14.3 26.9 14.6 26L14.4 25.8C14 25.4 14 24.8 14.4 24.4C14.7 24.1 15.2 24 15.6 24.2C16.3 23.2 17.1 22.5 18 22.2V22C18 21.4 18.4 21 19 21C19.6 21 20 21.4 20 22V22.2C20.9 22.5 21.8 23.2 22.4 24.2C22.8 24 23.3 24 23.6 24.4C24 24.8 24 25.4 23.6 25.8L23.4 26C23.7 26.9 23.9 27.9 24 29C24.6 29 25 29.4 25 30C25 30.6 24.6 31 24 31C23.9 32.1 23.7 33.1 23.4 34L23.7 34.3C24.1 34.7 24.1 35.3 23.7 35.7C23.5 35.9 23.2 36 23 36C22.8 36 22.7 35.9 22.5 35.9C21.8 36.9 21 37.6 20.1 37.9V38C20.1 38.6 19.7 39 19.1 39C18.5 39 18.1 38.6 18.1 38V37.8C17.2 37.5 16.3 36.8 15.7 35.8C15.6 35.9 15.4 35.9 15.2 35.9C14.9 35.9 14.7 35.8 14.5 35.6C14.1 35.2 14.1 34.6 14.5 34.2L14.8 33.9C14.5 33 14.3 32 14.2 30.9C13.6 30.9 13.2 30.5 13.2 29.9C13.2 29.3 13.4 29 14 29ZM32 55V5C32 4.4 31.6 4 31 4C30.4 4 30 4.4 30 5V55C30 55.6 30.4 56 31 56C31.6 56 32 55.6 32 55ZM19 32C19.6 32 20 31.6 20 31V29C20 28.4 19.6 28 19 28C18.4 28 18 28.4 18 29V31C18 31.6 18.4 32 19 32ZM38 53C38 53.6 38.4 54 39 54H53C53.6 54 54 53.6 54 53V7C54 6.4 53.6 6 53 6H39C38.4 6 38 6.4 38 7C38 7.6 38.4 8 39 8H52V52H39C38.4 52 38 52.4 38 53ZM8 40H6V46H8V40ZM8 25V38H9C9.6 38 10 38.4 10 39V47C10 47.6 9.6 48 9 48H5C4.4 48 4 47.6 4 47V39C4 38.4 4.4 38 5 38H6V25C6 24.4 6.4 24 7 24C7.6 24 8 24.4 8 25ZM8 14H6V20H8V14ZM36 3V57C36 57.4 35.8 57.7 35.4 57.9L31.4 59.9C31.3 60 31.2 60 31 60C30.9 60 30.8 60 30.8 60L6.8 54C6.8 54 6.8 54 6.7 54C6.6 54 6.6 53.9 6.5 53.9C6.4 53.9 6.4 53.8 6.3 53.8L6.2 53.7C6.2 53.6 6.1 53.6 6.1 53.5C6.1 53.4 6.1 53.4 6 53.3C6 53.2 6 53.2 6 53.1C6 53.1 6 53.1 6 53V51C6 50.4 6.4 50 7 50C7.6 50 8 50.4 8 51V52.2L30.9 57.9L34 56.3V3.6L30.9 2L8 7.8V12H9C9.6 12 10 12.4 10 13V21C10 21.6 9.6 22 9 22H5C4.4 22 4 21.6 4 21V13C4 12.4 4.4 12 5 12H6V7C6 6.5 6.3 6.1 6.8 6L30.8 0C31 0 31.2 0 31.4 0.1L35.4 2.1C35.8 2.3 36 2.6 36 3ZM55 0H39C38.4 0 38 0.4 38 1C38 1.6 38.4 2 39 2H55C56.7 2 58 3.3 58 5V55C58 56.7 56.7 58 55 58H39C38.4 58 38 58.4 38 59C38 59.6 38.4 60 39 60H55C57.8 60 60 57.8 60 55V5C60 2.2 57.8 0 55 0ZM18 59C18 59.6 17.6 60 17 60H5C2.2 60 0 57.8 0 55V5C0 2.2 2.2 0 5 0H17C17.6 0 18 0.4 18 1C18 1.6 17.6 2 17 2H5C3.3 2 2 3.3 2 5V55C2 56.7 3.3 58 5 58H17C17.6 58 18 58.4 18 59Z" fill="#D09E70"/>
</svg>
