<svg width="60" height="60" viewBox="0 0 60 60" fill="none" xmlns="http://www.w3.org/2000/svg">
<path d="M39 54H36V49C36 48.4 35.6 48 35 48C34.4 48 34 48.4 34 49V55C34 55.6 34.4 56 35 56H39C40.1 56 41.3 56.9 41.8 58H18.2C18.7 56.9 19.9 56 21 56H31C31.6 56 32 55.6 32 55C32 54.4 31.6 54 31 54H26V49C26 48.4 25.6 48 25 48C24.4 48 24 48.4 24 49V54H21C18.4 54 16 56.4 16 59C16 59.6 16.4 60 17 60H43C43.6 60 44 59.6 44 59C44 56.4 41.6 54 39 54ZM20 20.5L17.2 23.3C16.8 23.7 16.8 24.3 17.2 24.7C17.4 24.9 17.7 25 17.9 25C18.2 25 18.4 24.9 18.6 24.7L21.4 21.9C21.8 21.5 21.8 20.9 21.4 20.5C21.1 20.1 20.4 20.1 20 20.5ZM14 17C14 17.6 14.4 18 15 18H19C19.6 18 20 17.6 20 17C20 16.4 19.6 16 19 16H15C14.4 16 14 16.4 14 17ZM21.5 12.1L18.7 9.3C18.3 8.9 17.7 8.9 17.3 9.3C16.9 9.7 16.9 10.3 17.3 10.7L20.1 13.5C20.3 13.7 20.6 13.8 20.8 13.8C21 13.8 21.3 13.7 21.5 13.5C21.9 13.1 21.9 12.4 21.5 12.1ZM29.9 13.5L32.7 10.7C33.1 10.3 33.1 9.7 32.7 9.3C32.3 8.9 31.7 8.9 31.3 9.3L28.5 12.1C28.1 12.5 28.1 13.1 28.5 13.5C28.7 13.7 29 13.8 29.2 13.8C29.5 13.8 29.8 13.7 29.9 13.5ZM26 11V7C26 6.4 25.6 6 25 6C24.4 6 24 6.4 24 7V11C24 11.6 24.4 12 25 12C25.6 12 26 11.6 26 11ZM55 0H5C2.4 0 0.2 2.2 0 5V31C0 31.6 0.4 32 1 32C1.6 32 2 31.6 2 31V5.1C2.1 3.6 3.3 2 5 2H55C56.7 2 58 3.3 58 5V41C58 42.7 56.7 44 55 44H5C3.3 44 2 42.7 2 41V36H55C55.3 36 55.6 35.9 55.8 35.6C56 35.4 56 35 56 34.7C54 27.6 50.3 22.4 50.2 22.3C49.8 21.7 49.2 21.2 48.4 21C47.6 20.8 46.8 20.9 46.1 21.3C45.8 21.5 45.5 21.7 45.3 22C44.8 21.5 44.2 21.1 43.6 21C42.7 20.7 41.7 20.9 40.8 21.4C40.2 21.8 39.7 22.3 39.3 23C39 22.8 38.7 22.7 38.3 22.6C37.4 22.3 36.4 22.5 35.5 23C34.9 23.3 34.4 23.8 34.1 24.4L28.1 16.1C26.2 13.5 24.3 14.2 23.5 14.7C22.6 15.2 22.1 16 21.9 16.9C21.7 17.7 21.9 18.7 22.4 19.5L30 31.7C30.3 32.2 30.9 32.3 31.4 32C31.9 31.7 32 31.1 31.7 30.6L24.1 18.4C24 17.8 24 17.4 24 17C24.1 16.6 24.3 16.4 24.6 16.2C24.9 16 25.5 15.7 26.6 17.1L34.3 27.8C34.6 28.2 35.2 28.3 35.7 28.1C36.1 27.8 36.3 27.2 36 26.8C35.8 26.4 35.7 26 35.8 25.6C35.9 25.2 36.2 24.8 36.6 24.6C37 24.4 37.4 24.3 37.8 24.4C38.2 24.5 38.6 24.8 38.8 25.2L39.5 26.3C39.8 26.8 40.4 26.9 40.9 26.7C41.4 26.4 41.5 25.8 41.3 25.3C41 24.8 40.9 24.4 41 24C41.1 23.6 41.4 23.2 41.8 23C42.2 22.8 42.6 22.7 43 22.8C43.4 22.9 43.8 23.2 44 23.6L45 25.3C45.3 25.8 45.9 25.9 46.4 25.7C46.9 25.4 47 24.8 46.8 24.3C46.7 24.1 46.6 23.8 46.7 23.6C46.8 23.3 46.9 23.1 47.1 23C47.3 22.9 47.6 22.9 47.8 22.9C48.1 23 48.3 23.1 48.4 23.4C48.4 23.4 51.6 27.9 53.6 34H1C0.4 34 0 34.4 0 35V41C0 43.8 2.2 46 5 46H55C57.8 46 60 43.8 60 41V5C60 2.2 57.8 0 55 0Z" fill="#D09E70"/>
</svg>
