<svg width="60" height="62" viewBox="0 0 60 62" fill="none" xmlns="http://www.w3.org/2000/svg">
<path d="M22 41.975C20.5 41.975 19.1 42.875 18.4 44.175C18 44.075 17.5 43.975 17 43.975C14.2 43.975 12 46.175 12 48.975C12 49.575 12.4 49.975 13 49.975C13.6 49.975 14 49.575 14 48.975C14 47.275 15.3 45.975 17 45.975C17.5 45.975 18 46.075 18.5 46.375C18.8 46.575 19.1 46.575 19.4 46.375C19.7 46.275 19.9 45.975 20 45.575C20.1 44.575 21 43.875 22 43.875C23 43.875 23.9 44.675 24 45.675C24 46.075 24.3 46.475 24.8 46.575C25.2 46.675 25.6 46.475 25.9 46.175C26.8 44.775 28.4 43.875 30.1 43.875C31.8 43.875 33.4 44.775 34.3 46.175C34.5 46.575 35 46.675 35.4 46.575C35.8 46.475 36.1 46.075 36.2 45.675C36.3 44.675 37.1 43.875 38.2 43.875C39.2 43.875 40 44.575 40.2 45.575C40.2 45.875 40.5 46.175 40.8 46.375C41.1 46.475 41.5 46.475 41.7 46.375C42.2 46.075 42.7 45.975 43.2 45.975C44.9 45.975 46.2 47.275 46.2 48.975C46.2 49.575 46.6 49.975 47.2 49.975C47.8 49.975 48.2 49.575 48.2 48.975C48.2 46.175 46 43.975 43.2 43.975C42.7 43.975 42.2 44.075 41.8 44.175C41.1 42.875 39.8 41.975 38.2 41.975C36.8 41.975 35.6 42.675 34.9 43.775C33.4 42.575 31.8 41.975 30 41.975C28.2 41.975 26.6 42.575 25.3 43.775C24.6 42.675 23.4 41.975 22 41.975ZM18 34.975C18 35.575 18.4 35.975 19 35.975H22V36.975C22 37.575 22.4 37.975 23 37.975C23.6 37.975 24 37.575 24 36.975V35.975H26C26.6 35.975 27 35.575 27 34.975C27 34.375 26.6 33.975 26 33.975H20V32.975C20 30.075 21 28.775 22.1 27.475C23 26.275 24 25.075 24 22.975V12.975C24 9.475 25.6 7.775 25.8 7.575L30 2.475L34.3 7.575C34.4 7.775 36 9.475 36 12.975V22.975C36 25.175 37 26.375 37.9 27.475C39 28.775 40 29.975 40 32.975V33.975H34C33.4 33.975 33 34.375 33 34.975C33 35.575 33.4 35.975 34 35.975H36V36.975C36 37.575 36.4 37.975 37 37.975C37.6 37.975 38 37.575 38 36.975V35.975H41C41.6 35.975 42 35.575 42 34.975V32.975C42 29.275 40.6 27.575 39.5 26.175C38.6 25.175 38 24.375 38 22.975V12.975C38 8.575 35.8 6.375 35.8 6.375L30.8 0.375C30.4 -0.125 29.6 -0.125 29.3 0.375L24.4 6.275C24.2 6.375 22 8.575 22 12.975V22.975C22 24.375 21.4 25.175 20.5 26.175C19.4 27.575 18 29.275 18 32.975V34.975ZM29 28.975V36.975C29 37.575 29.4 37.975 30 37.975C30.6 37.975 31 37.575 31 36.975V28.975C31 28.375 30.6 27.975 30 27.975C29.4 27.975 29 28.375 29 28.975ZM32 15.975C32 14.875 31.1 13.975 30 13.975C28.9 13.975 28 14.875 28 15.975C28 17.075 28.9 17.975 30 17.975C31.1 17.975 32 17.075 32 15.975ZM30 19.975C27.8 19.975 26 18.175 26 15.975C26 13.775 27.8 11.975 30 11.975C32.2 11.975 34 13.775 34 15.975C34 18.175 32.2 19.975 30 19.975ZM3 53.975C3.6 53.975 4 53.575 4 52.975V22.975C4 21.475 5.5 19.975 7 19.975H19C19.6 19.975 20 19.575 20 18.975C20 18.375 19.6 17.975 19 17.975H7C4.4 17.975 2 20.375 2 22.975V52.975C2 53.475 2.4 53.975 3 53.975ZM59 51.975H58V22.975C58 20.375 55.6 17.975 53 17.975H41C40.4 17.975 40 18.375 40 18.975C40 19.575 40.4 19.975 41 19.975H53C54.5 19.975 56 21.475 56 22.975V52.975C56 53.575 56.4 53.975 57 53.975H58V56.975C58 58.475 56.5 59.975 55 59.975H5C3.9 59.975 2.7 59.075 2.2 57.975H55C55.6 57.975 56 57.575 56 56.975C56 56.375 55.6 55.975 55 55.975H1C0.4 55.975 0 56.375 0 56.975C0 59.575 2.4 61.975 5 61.975H55C57.6 61.975 60 59.575 60 56.975V52.975C60 52.375 59.6 51.975 59 51.975Z" fill="#D09E70"/>
</svg>
