<svg width="120" height="32" viewBox="0 0 120 32" fill="none" xmlns="http://www.w3.org/2000/svg">
<path d="M5.10495 7.89082V6.67714H1.70165L4.83268 3.03612C4.96881 2.83384 5.10495 2.56413 5.10495 2.36185C5.10495 1.95729 4.76462 1.55273 4.22009 1.55273H0.136132V2.69898H3.4033L0.408396 6.20516C0.272264 6.34001 0 6.67714 0 7.0817C0 7.28398 0.068066 7.95825 1.08906 7.95825H5.10495V7.89082Z" fill="#424555"/>
<path d="M8.78544 3.91275C8.78544 3.44076 8.85351 3.17106 8.98964 2.96878C9.19384 2.7665 9.53417 2.69907 9.80643 2.69907H10.5552V1.41797H9.80643C9.0577 1.41797 8.51318 1.62025 8.10478 1.95738C7.56025 2.56422 7.49219 3.17106 7.49219 3.77789V7.89091H8.85351V3.91275H8.78544Z" fill="#424555"/>
<path d="M15.246 7.9574C15.9266 7.9574 16.9476 7.88997 17.6283 7.21571C18.0367 6.81115 18.4451 6.06946 18.4451 4.65351C18.4451 3.50726 18.1728 2.63071 17.6283 2.0913C16.9476 1.41704 15.9947 1.34961 15.246 1.34961C14.4972 1.34961 13.5443 1.41704 12.8637 2.0913C12.3191 2.63071 12.0469 3.50726 12.0469 4.65351C12.0469 6.06946 12.5233 6.87858 12.8637 7.21571C13.5443 7.88997 14.5653 7.9574 15.246 7.9574ZM13.4082 4.72093C13.4082 4.24895 13.4082 3.43983 13.7485 3.03527C14.0889 2.69814 14.7014 2.63071 15.246 2.63071C15.7905 2.63071 16.4031 2.69814 16.7434 3.03527C17.0838 3.43983 17.0838 4.24895 17.0838 4.72093C17.0838 5.12549 17.0838 5.86718 16.7434 6.27174C16.4031 6.6763 15.7905 6.6763 15.246 6.6763C14.7014 6.6763 14.0889 6.60887 13.7485 6.27174C13.4082 5.86718 13.4082 5.19292 13.4082 4.72093Z" fill="#424555"/>
<path d="M3.06024 13.4201H1.63085V11.5996H0.269531V18.612C0.269531 18.8142 0.269531 19.2862 0.677927 19.6234C0.950191 19.8256 1.35859 19.8931 1.83505 19.8931H3.06024C3.7409 19.8931 4.76188 19.7582 5.37448 18.7468C5.78287 18.14 5.78287 17.3983 5.78287 16.724C5.78287 16.1846 5.78287 15.2406 5.30641 14.5664C4.69382 13.4201 3.46863 13.4201 3.06024 13.4201ZM1.63085 18.612V14.7012H2.99217C3.46863 14.7012 4.01316 14.7687 4.21736 15.3081C4.35349 15.6452 4.42155 16.3195 4.42155 16.9263C4.42155 17.3309 4.42155 17.8028 4.21736 18.0725C3.94509 18.5445 3.46863 18.612 2.9241 18.612H1.63085C1.69892 18.612 1.63085 18.612 1.63085 18.612Z" fill="#424555"/>
<path d="M10.0003 11.5996H8.70703V19.8931H10.0003V11.5996Z" fill="#424555"/>
<path d="M17.0839 13.8245C16.5393 13.4873 15.8587 13.4199 15.4503 13.4199C14.9057 13.4199 14.0209 13.4873 13.4083 14.0268C12.5915 14.701 12.5234 15.7798 12.5234 16.6564C12.5234 17.6004 12.5915 18.3421 13.068 19.0163C13.4764 19.5557 14.089 19.8929 14.9057 19.8929H18.1048V18.6118H14.9057C14.2932 18.6118 14.0209 18.1398 14.0209 17.8701C13.9528 17.7352 13.9528 17.4655 13.9528 17.1958H17.0158C17.3561 17.1958 17.6964 17.1284 17.9006 16.9261C18.1729 16.7238 18.241 16.3867 18.241 15.9147C18.241 15.0382 17.8326 14.229 17.0839 13.8245ZM14.089 15.173C14.3612 14.701 14.7696 14.6336 15.3822 14.6336C15.9267 14.6336 16.2671 14.6336 16.6074 14.9707C16.7435 15.1056 16.8797 15.4427 16.8797 15.9147H13.8848C13.8848 15.645 13.9528 15.3753 14.089 15.173Z" fill="#424555"/>
<path d="M3.47088 25.4219H1.4289C1.29277 25.4219 0.816305 25.4219 0.544042 25.759C0.339844 26.0287 0.339844 26.2984 0.339844 26.5007V31.8274H1.70116V26.6356H3.53894C3.87927 26.6356 4.08347 26.703 4.15154 26.8378C4.28767 26.9727 4.28767 27.175 4.28767 27.6469V31.8274H5.64899V27.5121C5.64899 26.8378 5.44479 26.2984 5.10446 25.8939C4.628 25.4893 4.01541 25.4219 3.47088 25.4219Z" fill="#424555"/>
<path d="M11.16 25.3535C10.4113 25.3535 9.45839 25.4209 8.77773 26.0952C8.2332 26.6346 7.96094 27.5112 7.96094 28.6574C7.96094 30.0734 8.4374 30.8825 8.77773 31.2196C9.45839 31.8939 10.4794 31.9613 11.16 31.9613C11.8407 31.9613 12.8617 31.8939 13.5423 31.2196C13.9507 30.8151 14.3591 30.0734 14.3591 28.6574C14.3591 27.5112 14.0869 26.6346 13.5423 26.0952C12.8617 25.4209 11.9088 25.3535 11.16 25.3535ZM9.66259 27.0392C10.0029 26.702 10.6155 26.6346 11.16 26.6346C11.7046 26.6346 12.3172 26.702 12.6575 27.0392C12.9978 27.4437 12.9978 28.2529 12.9978 28.7248C12.9978 29.1294 12.9978 29.8711 12.6575 30.2756C12.3172 30.6802 11.7046 30.6802 11.16 30.6802C10.6155 30.6802 10.0029 30.6128 9.66259 30.2756C9.32226 29.8711 9.32226 29.1294 9.32226 28.6574C9.32226 28.2529 9.32226 27.4437 9.66259 27.0392Z" fill="#424555"/>
<path d="M18.2458 25.4219H16.8164V27.0401H18.2458V25.4219Z" fill="#424555"/>
<path d="M18.2458 30.2754H16.8164V31.8936H18.2458V30.2754Z" fill="#424555"/>
<path d="M24.0938 0V31.9601H119.999V0H24.0938ZM117.072 29.1282H26.9525V2.83191H117.072V29.1282Z" fill="#424555"/>
<path d="M34.6473 21.1037H43.3597C44.653 21.1037 44.721 20.0249 44.721 19.4855C44.721 18.8787 44.5849 18.2044 43.2916 17.8673L36.8934 16.0467C36.6892 15.9793 35.7363 15.6422 35.1237 14.9679C34.4431 14.1588 34.375 13.0126 34.375 12.2034C34.375 11.3269 34.5111 10.2481 35.3279 9.50638C36.0767 8.76469 37.0296 8.69727 37.7783 8.69727H46.8311V10.8549H38.7312C38.3228 10.8549 37.9144 10.8549 37.5741 11.192C37.2338 11.5292 37.1657 12.0686 37.1657 12.3383C37.1657 13.0126 37.3699 13.6194 38.527 13.9565L44.4488 15.6422C45.4698 15.9793 46.0823 16.249 46.5588 16.6536C47.4437 17.4627 47.5117 18.8112 47.5117 19.4855C47.5117 20.4295 47.3756 21.4409 46.763 22.1826C46.0143 23.1265 45.1294 23.194 44.1084 23.194H34.6473V21.1037Z" fill="#424555"/>
<path d="M68.8783 23.2614H66.0876V16.8559H58.3962V23.2614H55.6055V8.69727H58.3962V14.6982H66.0876V8.69727H68.8783V23.2614Z" fill="#424555"/>
<path d="M90.0496 10.0469C91.6151 11.5303 91.7513 14.0251 91.7513 15.9804C91.7513 17.8684 91.6151 20.4306 90.0496 21.914C88.416 23.4648 85.8976 23.4648 84.1959 23.4648C82.4262 23.4648 79.9759 23.4648 78.3423 21.914C76.6406 20.2957 76.6406 17.6661 76.6406 15.9804C76.6406 14.0251 76.7768 11.5303 78.3423 10.0469C79.9759 8.49609 82.4262 8.49609 84.1959 8.49609C85.9657 8.49609 88.4841 8.49609 90.0496 10.0469ZM80.3843 20.026C81.2691 21.1048 82.6304 21.2397 84.1959 21.2397C85.6934 21.2397 87.1228 21.1048 88.0076 20.026C88.4841 19.4192 88.8925 18.3404 88.8925 15.9804C88.8925 13.4857 88.416 12.4743 88.0076 11.8674C87.1228 10.7886 85.6934 10.6537 84.1959 10.6537C82.6304 10.6537 81.2691 10.7886 80.3843 11.8674C79.8397 12.6091 79.4994 13.7554 79.4994 15.9804C79.4994 18.3404 79.9078 19.4192 80.3843 20.026Z" fill="#424555"/>
<path d="M102.375 23.1913H105.166V20.3594H102.375V23.1913Z" fill="#424555"/>
<path d="M110.611 12.0003C110.611 11.3261 110.543 10.5169 110.066 9.77524C109.93 9.57296 109.862 9.43811 109.726 9.30326C109.317 8.8987 108.841 8.62899 108.16 8.56157C107.956 8.56157 107.48 8.49414 107.003 8.49414H98.2227V10.6518H106.323C106.731 10.6518 107.139 10.6518 107.48 10.9889C107.82 11.3261 107.888 11.8655 107.888 12.1352C107.888 12.8094 107.616 13.3488 106.527 13.7534C105.914 14.0231 104.212 14.6299 103.872 14.8997C103.396 15.2368 102.987 15.6413 102.783 16.2482C102.579 16.7876 102.443 17.2596 102.443 18.2035H105.165C105.165 18.2035 105.165 18.0013 105.165 17.8664C105.165 17.7316 105.165 17.5967 105.233 17.4619C105.233 17.327 105.302 17.2596 105.37 17.1922C105.438 17.1247 105.506 17.0573 105.642 16.9899C105.778 16.9224 105.982 16.855 106.186 16.7876C106.186 16.7876 108.637 15.8436 109.113 15.5739C109.385 15.3716 109.658 15.1019 109.862 14.8997C110.543 14.0231 110.611 12.8769 110.611 12.0003Z" fill="#424555"/>
</svg>
