<svg width="61" height="59" viewBox="0 0 61 59" fill="none" xmlns="http://www.w3.org/2000/svg">
<path d="M25.4304 3.93627C13.6435 3.93627 4.08845 13.1812 4.08845 24.5853C4.08845 35.9895 13.6435 45.2344 25.4304 45.2344C37.2172 45.2344 46.7723 35.9895 46.7723 24.5853C46.7595 13.1863 37.2119 3.94869 25.4304 3.93627ZM25.4304 5.90285C31.7079 5.90764 37.5906 8.86783 41.199 13.838L38.6583 16.2962C38.04 15.9342 37.3322 15.7405 36.6095 15.7357C34.3644 15.7357 32.5443 17.4967 32.5443 19.6689C32.5479 20.3689 32.747 21.0548 33.1206 21.6541L26.466 28.0927C25.2059 27.3494 23.6223 27.3494 22.3622 28.0927L17.7402 23.6207C18.1138 23.0214 18.3128 22.3354 18.3164 21.6355C18.3192 19.4676 16.5051 17.708 14.2645 17.7053C12.4114 17.7031 10.7924 18.9158 10.3305 20.6522H6.56005C8.48425 12.0549 16.3387 5.91576 25.4304 5.90285ZM38.642 19.6689C38.642 20.7551 37.7321 21.6355 36.6095 21.6355C35.4869 21.6355 34.5769 20.7551 34.5769 19.6689C34.5769 18.5827 35.4869 17.7023 36.6095 17.7023C37.7321 17.7023 38.642 18.5827 38.642 19.6689ZM26.4467 31.4683C26.4467 32.5545 25.5367 33.4349 24.4141 33.4349C23.2915 33.4349 22.3815 32.5545 22.3815 31.4683C22.3815 30.3822 23.2915 29.5018 24.4141 29.5018C25.5367 29.5018 26.4467 30.3822 26.4467 31.4683ZM16.2838 21.6355C16.2838 22.7216 15.3739 23.602 14.2513 23.602C13.1287 23.602 12.2187 22.7216 12.2187 21.6355C12.2187 20.5493 13.1287 19.6689 14.2513 19.6689C15.3739 19.6689 16.2838 20.5493 16.2838 21.6355ZM34.8124 40.9209C31.9425 42.4627 28.7132 43.2705 25.4304 43.2677C14.7734 43.2747 6.12826 34.9218 6.12101 24.6108C6.12051 23.9453 6.15684 23.2803 6.22976 22.6186H10.3305C10.7925 24.3498 12.4033 25.5617 14.2513 25.5685C14.9747 25.5651 15.6837 25.3725 16.3031 25.011L20.9252 29.483C20.5516 30.0823 20.3525 30.7683 20.349 31.4682C20.349 33.6404 22.169 35.4014 24.4141 35.4014C26.6592 35.4014 28.4792 33.6404 28.4792 31.4682C28.4757 30.7683 28.2766 30.0823 27.903 29.483L34.5576 23.0444C35.177 23.4059 35.886 23.5985 36.6095 23.6019C38.8546 23.6019 40.6746 21.841 40.6746 19.6688C40.671 18.9688 40.472 18.2828 40.0984 17.6835L42.3139 15.5409C47.4861 24.5537 44.1275 35.9167 34.8124 40.9209Z" fill="#D09E70"/>
<path d="M50.8372 9.83604C52.6852 9.82928 54.296 8.6175 54.758 6.88618H61V4.9196H54.758C54.296 3.18827 52.6852 1.9765 50.8372 1.96974C48.5921 1.96974 46.7721 3.73068 46.7721 5.90289C46.7756 6.60287 46.9747 7.28883 47.3483 7.88815L45.5627 9.61579C37.0189 -1.1538 21.0694 -3.18306 9.93844 5.08332C-1.19252 13.3497 -3.28987 28.7816 5.25389 39.5511C13.3186 49.7167 28.1018 52.1827 39.219 45.2167L51.9043 57.4901C53.985 59.5033 57.3583 59.5033 59.439 57.4901C61.5197 55.477 61.5197 52.2132 59.439 50.2L46.7538 37.9266C52.1984 29.8125 52.1984 19.3583 46.7538 11.2441L48.7863 9.27753C49.4054 9.63914 50.1141 9.83211 50.8372 9.83604ZM50.8372 3.93631C51.9598 3.93631 52.8697 4.81672 52.8697 5.90289C52.8697 6.98905 51.9598 7.86947 50.8372 7.86947C49.7146 7.86947 48.8046 6.98905 48.8046 5.90289C48.8046 4.81672 49.7147 3.93631 50.8372 3.93631ZM58.002 51.5904C59.3036 52.8215 59.3273 54.8404 58.0549 56.0998C56.7826 57.3591 54.6959 57.3821 53.3943 56.151C53.3764 56.1342 53.3588 56.1171 53.3413 56.0998L45.1602 48.1843L49.8209 43.6749L58.002 51.5904ZM48.3839 42.2846L43.7232 46.7939L40.9101 44.0722C41.0534 43.966 41.1876 43.849 41.3288 43.7398C41.4701 43.6307 41.6337 43.4999 41.7852 43.377C42.0077 43.1961 42.2272 43.0132 42.4427 42.8254C42.5535 42.727 42.6592 42.6287 42.7679 42.5304C43.1846 42.1528 43.588 41.7624 43.9783 41.3593C44.0799 41.2541 44.1815 41.1518 44.2832 41.0446C44.4773 40.8362 44.6663 40.6238 44.8533 40.4084C44.9807 40.2629 45.1057 40.1158 45.2283 39.9669C45.3401 39.8313 45.461 39.7015 45.5708 39.5628L48.3839 42.2846ZM44.4427 37.7172C44.1226 38.1498 43.7923 38.5736 43.4437 38.9817C43.3421 39.1007 43.2334 39.2157 43.1287 39.3327C42.8177 39.6828 42.4966 40.0224 42.1652 40.3514C42.0209 40.4956 41.8742 40.6376 41.7252 40.7772C41.3864 41.0977 41.0355 41.4085 40.6723 41.7093C40.5514 41.8077 40.4325 41.9148 40.3095 42.0142C39.8878 42.3514 39.4497 42.671 39.0026 42.9807C28.482 50.2528 13.8604 47.8962 6.34436 37.7172C-1.17168 27.5382 1.26396 13.3912 11.7845 6.11921C22.3051 -1.15282 36.9267 1.20363 44.4427 11.3828C50.2585 19.2591 50.2585 29.8408 44.4427 37.7172Z" fill="#D09E70"/>
</svg>
