<svg width="41" height="15" viewBox="0 0 41 15" fill="none" xmlns="http://www.w3.org/2000/svg">
<path d="M40.6907 14.2447C39.6729 14.2447 38.6739 14.2447 37.656 14.2447C37.5429 13.6433 37.4299 13.0619 37.3168 12.4805C37.2791 12.3 37.2225 12.2399 37.034 12.2399C35.7712 12.2399 34.5083 12.2399 33.2643 12.2399C33.1135 12.2399 33.0192 12.28 32.9627 12.4604C32.793 13.0017 32.6045 13.543 32.4161 14.0844C32.3972 14.1646 32.2841 14.2648 32.2276 14.2648C31.1343 14.2848 30.0411 14.2648 28.9102 14.2648C28.9479 14.1445 28.9856 14.0643 29.0233 13.9641C30.6066 9.91422 32.2087 5.86438 33.792 1.83458C34.0748 1.09278 34.5648 0.751953 35.3188 0.751953C36.1481 0.751953 36.9963 0.751953 37.8257 0.751953C37.9953 0.751953 38.0519 0.812099 38.0896 0.992538C38.9378 5.34311 39.786 9.67364 40.653 14.0042C40.6719 14.0643 40.6719 14.1445 40.6907 14.2447ZM36.7136 9.4531C36.3932 7.78906 36.0539 6.12501 35.7335 4.48102C35.7146 4.48102 35.6958 4.48102 35.6769 4.48102C35.1114 6.12501 34.546 7.78906 33.9805 9.4531C34.9041 9.4531 35.79 9.4531 36.7136 9.4531Z" fill="#0888EA"/>
<path d="M0 1.11191C0.0188489 0.971571 0.0565467 0.871327 0.0753956 0.751035C0.150791 0.751035 0.226187 0.730986 0.301582 0.730986C2.07338 0.730986 3.82632 0.730986 5.59812 0.730986C6.46517 0.730986 7.04949 1.25225 7.20028 2.15445C7.65265 4.70063 8.10502 7.22677 8.5574 9.77296C8.5574 9.79301 8.5574 9.79301 8.59509 9.87321C8.65164 9.75291 8.68934 9.67272 8.70819 9.59252C9.78257 6.70551 10.857 3.83854 11.9125 0.951522C11.9879 0.771084 12.0633 0.710938 12.2518 0.710938C13.2319 0.730986 14.2121 0.710938 15.1922 0.710938C15.2676 0.710938 15.343 0.710938 15.4561 0.710938C15.3995 0.851279 15.3807 0.951522 15.3241 1.07181C13.6277 5.38229 11.9125 9.71282 10.2161 14.0233C10.1596 14.1837 10.0653 14.2438 9.89567 14.2438C8.87783 14.2438 7.85999 14.2438 6.84215 14.2438C6.69136 14.2438 6.63481 14.2037 6.57826 14.0233C5.71121 10.4546 4.84416 6.90599 3.97712 3.33732C3.84517 2.79601 3.58129 2.43513 3.11007 2.19454C2.16762 1.71337 1.14978 1.41264 0.131942 1.15201C0.113093 1.15201 0.0753956 1.13196 0 1.11191Z" fill="#0888EA"/>
<path d="M29.6859 1.11077C29.4974 2.05306 29.3089 2.99535 29.1204 3.95768C29.0262 3.91759 28.9508 3.89754 28.8943 3.85744C27.9707 3.45647 27.0282 3.27603 26.0292 3.33617C25.6334 3.37627 25.2376 3.47652 24.8983 3.73715C24.3517 4.15817 24.3328 4.79973 24.8606 5.22076C25.2564 5.54153 25.7088 5.78212 26.1235 6.04275C26.6889 6.40363 27.2921 6.72441 27.801 7.16548C28.9696 8.10777 29.3089 9.39089 28.9696 10.8945C28.6115 12.4784 27.5937 13.4006 26.2366 13.962C25.0114 14.4632 23.7485 14.5434 22.4479 14.4231C21.6563 14.3429 20.8646 14.2026 20.1107 13.9219C19.9787 13.8818 19.8656 13.8217 19.7148 13.7615C19.9222 12.7791 20.1107 11.7967 20.318 10.7943C20.5442 10.8945 20.7704 11.0148 20.9966 11.095C22.0898 11.5762 23.2207 11.7767 24.3705 11.5361C24.691 11.476 25.0302 11.2955 25.2941 11.095C25.7842 10.7141 25.803 10.0124 25.3507 9.59138C25.0114 9.2706 24.5967 9.03001 24.2009 8.76938C23.5977 8.38845 22.9569 8.04763 22.4102 7.60655C20.5442 6.12295 20.8835 3.87749 21.8448 2.55427C22.561 1.57189 23.5412 1.03057 24.6533 0.729841C26.312 0.288769 27.933 0.409061 29.5351 1.01052C29.554 1.05062 29.6105 1.07067 29.6859 1.11077Z" fill="#0888EA"/>
<path d="M20.1502 0.751953C20.0183 1.37346 19.9052 1.95488 19.7921 2.53629C19.0381 6.3255 18.2653 10.1147 17.5114 13.924C17.4548 14.1646 17.3983 14.2848 17.1344 14.2648C16.2296 14.2447 15.3437 14.2648 14.439 14.2648C14.3636 14.2648 14.2693 14.2648 14.1562 14.2648C14.2316 13.9039 14.2882 13.5831 14.3636 13.2423C15.1929 9.15237 16.0223 5.06243 16.8328 0.972489C16.8705 0.792051 16.927 0.751953 17.0967 0.751953C18.0391 0.751953 18.9816 0.751953 19.924 0.751953C19.9806 0.751953 20.0371 0.751953 20.1502 0.751953Z" fill="#0888EA"/>
</svg>
