<svg width="87" height="22" viewBox="0 0 87 22" fill="none" xmlns="http://www.w3.org/2000/svg">
<path d="M10.2467 0C11.8564 0 13.3835 0.389276 14.7662 1.08132C14.9829 1.17864 15.1996 1.3084 15.4163 1.42735L14.4773 2.30322L13.0636 0.767739L10.6284 3.00608L9.19416 1.40572L4.71588 5.57962L7.58446 8.85603L6.47005 9.87247L9.29735 13.1489L8.18294 14.1653L12.2278 18.8258L14.6218 16.5442L16.7061 18.988C16.2934 19.3124 15.8393 19.6368 15.3544 19.9288C13.8582 20.8046 12.135 21.3129 10.2879 21.3129C4.6127 21.3129 0.00027426 16.5334 0.00027426 10.6618C-0.0410002 4.80107 4.58174 0 10.2467 0ZM8.36867 9.99142L10.8245 7.70983L13.0224 10.2509L10.5665 12.5325L8.36867 9.99142ZM10.1125 14.3816L12.5477 12.0784L14.7662 14.6195L12.3104 16.9011L10.1125 14.3816ZM6.6145 5.65531L9.07033 3.37372L11.2682 5.91483L8.81237 8.19642L6.6145 5.65531ZM11.1134 4.43342L12.9398 2.72493L14.5908 4.61724L12.7644 6.34736L11.1134 4.43342ZM14.3741 12.2622L16.2005 10.5537L17.8515 12.4676L16.0251 14.1761L14.3741 12.2622ZM15.9838 16.1117L17.8102 14.4032L19.4612 16.2955L17.6348 18.0256L15.9838 16.1117ZM16.7267 7.32055L17.9443 6.18516L19.0484 7.45031L17.8308 8.5857L16.7267 7.32055ZM15.1583 3.55755L16.3759 2.40053L17.48 3.67649L16.2624 4.81188L15.1583 3.55755ZM18.2849 11.0836L19.5025 9.94816L20.6169 11.2133L19.3786 12.3487L18.2849 11.0836ZM12.8057 8.2613L14.6321 6.55281L16.2831 8.44512L14.4567 10.1536L12.8057 8.2613Z" fill="#0888EA"/>
<mask id="mask0" mask-type="alpha" maskUnits="userSpaceOnUse" x="24" y="5" width="11" height="10">
<path d="M24.1797 5.16406V14.9933H34.911V5.16406H24.1797Z" fill="white"/>
</mask>
<g mask="url(#mask0)">
<path d="M29.5621 8.07282H29.4692L27.7254 14.9933H26.3117L24.1758 5.16406H25.6513L27.1269 12.4954H27.2198L28.9327 5.16406H30.0987L31.9354 12.4954H32.0179L33.3697 5.16406H34.9071L32.7712 14.9933H31.3472L29.5621 8.07282Z" fill="white"/>
</g>
<path d="M36.7733 10.8096H39.7864C39.7244 9.34979 39.0537 8.77669 38.3418 8.77669C37.5369 8.77669 36.9178 9.42548 36.7733 10.8096ZM40.8389 13.4156V14.4644C40.2507 14.8213 39.4562 15.1024 38.5068 15.1024C36.2987 15.1024 35.3906 13.6643 35.3906 11.4692C35.3906 9.3606 36.4018 7.83594 38.383 7.83594C40.0237 7.83594 41.0452 8.96051 41.0452 11.2205V11.7287H36.7527C36.7527 13.3939 37.3924 14.1292 38.7545 14.1292C39.4665 14.14 40.1166 13.8805 40.8389 13.4156Z" fill="white"/>
<path d="M44.0978 13.999C44.5209 14.1936 44.9852 14.226 45.3051 14.226C46.2751 14.226 47.018 13.5881 47.018 11.3389C47.018 9.57635 46.4092 9.01407 45.5321 9.01407C45.0059 9.01407 44.6241 9.16545 44.0978 9.46822V13.999ZM44.1185 8.44097C44.5106 8.2247 45.1813 7.93274 45.8933 7.93274C47.5236 7.93274 48.411 9.1222 48.411 11.3389C48.411 13.9341 47.2244 15.1884 45.3154 15.1884C44.6138 15.1884 43.5406 14.9505 42.7461 14.5072V4.84016L44.1185 4.49414V8.44097Z" fill="white"/>
<path d="M54.3332 12.9063H54.3951L57.2121 5.16406H58.8527V14.9933H57.4287V7.86737H57.3049L54.6221 14.9933H53.776L51.0931 8.02957H50.9796V14.9933H49.793V5.16406H51.382L54.3332 12.9063Z" fill="white"/>
<path d="M64.6657 11.4789C64.6657 9.60826 63.9434 8.81889 63.0457 8.81889C62.1789 8.81889 61.4257 9.60826 61.4257 11.4789C61.4257 13.3821 62.1067 14.139 63.0457 14.139C63.9744 14.139 64.6657 13.3821 64.6657 11.4789ZM60.043 11.4789C60.043 9.05678 61.3122 7.8457 63.0457 7.8457C64.7792 7.8457 66.0484 9.05678 66.0484 11.4789C66.0484 13.847 64.8514 15.1122 63.0457 15.1122C61.2399 15.1122 60.043 13.847 60.043 11.4789Z" fill="white"/>
<path d="M67.0909 8.87296C67.6791 8.4945 68.938 7.8457 70.4445 7.8457C72.0232 7.8457 72.6114 8.4945 72.6114 9.92184V14.9392H71.239V10.2462C71.239 9.1541 70.7231 8.95947 70.0524 8.95947C69.5261 8.95947 68.8554 9.20817 68.4427 9.45687V14.95H67.0703V8.87296H67.0909Z" fill="white"/>
<path d="M75.5091 10.8096H78.5221C78.4602 9.34979 77.7895 8.77669 77.0775 8.77669C76.2727 8.77669 75.6536 9.42548 75.5091 10.8096ZM79.5849 13.4156V14.4644C78.9968 14.8213 78.2023 15.1024 77.2529 15.1024C75.0448 15.1024 74.1367 13.6643 74.1367 11.4692C74.1367 9.3606 75.1479 7.83594 77.1291 7.83594C78.7801 7.83594 79.7913 8.96051 79.7913 11.2205V11.7287H75.4988C75.4988 13.3939 76.1488 14.1292 77.5006 14.1292C78.2023 14.14 78.8626 13.8805 79.5849 13.4156Z" fill="white"/>
<path d="M85.2522 7.8457H86.6658L84.2822 14.777C83.6218 16.6909 82.817 17.6857 81.3105 17.6857V16.5503C82.2082 16.5503 82.7551 15.8042 83.0749 14.777L80.5469 7.8457H81.9915L83.6734 12.9495H83.756L85.2522 7.8457Z" fill="white"/>
</svg>
